<?xml version="1.0" encoding="UTF-8"?>
<!DOCTYPE svg PUBLIC "-//W3C//DTD SVG 1.1//EN" "http://www.w3.org/Graphics/SVG/1.1/DTD/svg11.dtd">
<svg xmlns="http://www.w3.org/2000/svg" version="1.1" width="2953px" height="2953px" style="shape-rendering:geometricPrecision; text-rendering:geometricPrecision; image-rendering:optimizeQuality; fill-rule:evenodd; clip-rule:evenodd" xmlns:xlink="http://www.w3.org/1999/xlink">
<g><path style="opacity:1" fill="#272627" d="M 1527.5,147.5 C 1475.13,146.902 1422.79,147.902 1370.5,150.5C 1378.3,149.152 1386.3,148.319 1394.5,148C 1430.81,145.988 1467.14,145.322 1503.5,146C 1511.68,146.171 1519.68,146.671 1527.5,147.5 Z"/></g>
<g><path style="opacity:1" fill="#000000" d="M 1527.5,147.5 C 1714.17,154.083 1891.17,198.417 2058.5,280.5C 2065.74,284.954 2073.41,288.621 2081.5,291.5C 2203.49,353.829 2313.16,433.163 2410.5,529.5C 2410.37,530.239 2410.54,530.906 2411,531.5C 2417.42,538.428 2424.26,544.762 2431.5,550.5C 2575.74,699.525 2679.74,873.525 2743.5,1072.5C 2744.01,1077.7 2745.68,1082.37 2748.5,1086.5C 2763.59,1135.77 2775.59,1185.77 2784.5,1236.5C 2788.14,1261.13 2791.64,1285.8 2795,1310.5C 2795.38,1311.06 2795.88,1311.39 2796.5,1311.5C 2799.09,1334.45 2801.09,1357.45 2802.5,1380.5C 2804.17,1429.48 2804.83,1478.48 2804.5,1527.5C 2789.85,1845.82 2678.02,2123.82 2469,2361.5C 2274.6,2576.85 2034.76,2715.68 1749.5,2778C 1685.78,2791.17 1621.44,2799.67 1556.5,2803.5C 1507.51,2804.37 1458.51,2804.7 1409.5,2804.5C 1377.07,2802.92 1344.74,2800.26 1312.5,2796.5C 1312.08,2795.78 1311.42,2795.28 1310.5,2795C 1285.8,2791.64 1261.13,2788.14 1236.5,2784.5C 987.421,2737.79 769.421,2630.29 582.5,2462C 571.635,2451.97 560.968,2441.8 550.5,2431.5C 550.631,2430.76 550.464,2430.09 550,2429.5C 543.577,2422.57 536.744,2416.24 529.5,2410.5C 432.742,2313.07 353.408,2203.07 291.5,2080.5C 288.341,2072.85 284.675,2065.52 280.5,2058.5C 198.576,1891.47 154.243,1714.8 147.5,1528.5C 147.153,1479.15 147.82,1429.82 149.5,1380.5C 149.726,1370.8 150.393,1361.13 151.5,1351.5C 153.145,1346.77 153.811,1341.77 153.5,1336.5C 153.926,1328.14 154.593,1319.81 155.5,1311.5C 156.117,1311.39 156.617,1311.06 157,1310.5C 157.904,1304.86 158.404,1299.2 158.5,1293.5C 164.626,1244.2 173.96,1195.53 186.5,1147.5C 187.79,1146.94 188.623,1145.94 189,1144.5C 190.742,1138.62 191.908,1132.62 192.5,1126.5C 253.241,906.915 361.908,715.581 518.5,552.5C 530.08,542.423 541.247,531.757 552,520.5C 552.464,519.906 552.631,519.239 552.5,518.5C 705.517,371.424 884.184,266.424 1088.5,203.5C 1109.27,197.809 1129.94,192.142 1150.5,186.5C 1192.48,175.07 1235.15,166.236 1278.5,160C 1286.81,158.836 1295.14,158.003 1303.5,157.5C 1311.7,156.975 1319.7,155.975 1327.5,154.5C 1341.6,152.191 1355.93,150.858 1370.5,150.5C 1422.79,147.902 1475.13,146.902 1527.5,147.5 Z"/></g>
<g><path style="opacity:1" fill="#3b393a" d="M 1327.5,154.5 C 1319.7,155.975 1311.7,156.975 1303.5,157.5C 1311.21,155.345 1319.21,154.345 1327.5,154.5 Z"/></g>
<g><path style="opacity:1" fill="#363435" d="M 1150.5,186.5 C 1129.94,192.142 1109.27,197.809 1088.5,203.5C 1108.66,196.291 1129.33,190.625 1150.5,186.5 Z"/></g>
<g><path style="opacity:1" fill="#353334" d="M 2058.5,280.5 C 2066.59,283.379 2074.26,287.046 2081.5,291.5C 2073.41,288.621 2065.74,284.954 2058.5,280.5 Z"/></g>
<g><path style="opacity:1" fill="#fbfbfb" d="M 1521.5,294.5 C 1539,295.819 1556.66,296.819 1574.5,297.5C 1577.05,298.388 1579.72,298.721 1582.5,298.5C 1590.67,299.687 1599.01,300.687 1607.5,301.5C 1654.25,306.681 1700.59,314.348 1746.5,324.5C 1754.66,327.147 1762.99,329.48 1771.5,331.5C 1793.4,336.744 1815.06,342.744 1836.5,349.5C 1844.94,352.871 1853.61,355.871 1862.5,358.5C 2139,457.858 2351.83,633.858 2501,886.5C 2614.23,1085.77 2666.39,1300.1 2657.5,1529.5C 2655.8,1544.3 2654.8,1559.3 2654.5,1574.5C 2653.53,1576.95 2653.19,1579.61 2653.5,1582.5C 2652.31,1590.67 2651.31,1599.01 2650.5,1607.5C 2650.5,1609.17 2650.5,1610.83 2650.5,1612.5C 2648.39,1626.68 2646.39,1641.01 2644.5,1655.5C 2639.74,1685.98 2634.07,1716.31 2627.5,1746.5C 2624.85,1754.66 2622.52,1762.99 2620.5,1771.5C 2615.34,1792.33 2609.67,1812.99 2603.5,1833.5C 2599.8,1842.94 2596.46,1852.61 2593.5,1862.5C 2535.9,2025.81 2447.9,2169.81 2329.5,2294.5C 2313.14,2310.53 2296.81,2326.53 2280.5,2342.5C 2142.87,2469.86 1983.2,2559.86 1801.5,2612.5C 1796.2,2613.6 1791.2,2615.27 1786.5,2617.5C 1780.55,2618.07 1774.88,2619.41 1769.5,2621.5C 1768.83,2621.5 1768.17,2621.5 1767.5,2621.5C 1760.27,2623.05 1753.27,2625.05 1746.5,2627.5C 1715.17,2634.16 1683.84,2640.16 1652.5,2645.5C 1632.67,2647.6 1613,2649.94 1593.5,2652.5C 1587.03,2652.33 1580.7,2653 1574.5,2654.5C 1558.97,2654.85 1543.64,2655.85 1528.5,2657.5C 1328.57,2665.38 1138.57,2626.05 958.5,2539.5C 951.692,2535.59 944.692,2531.93 937.5,2528.5C 695.869,2402.04 517.036,2215.37 401,1968.5C 385.434,1933.71 371.267,1898.37 358.5,1862.5C 355.871,1853.61 352.871,1844.94 349.5,1836.5C 349.5,1835.83 349.5,1835.17 349.5,1834.5C 348.204,1829.61 346.538,1824.94 344.5,1820.5C 342.569,1811.71 340.236,1803.04 337.5,1794.5C 335.282,1786.04 332.949,1777.71 330.5,1769.5C 321.038,1731.85 313.371,1693.85 307.5,1655.5C 306.928,1648.64 305.928,1641.97 304.5,1635.5C 303.566,1626.49 302.566,1617.49 301.5,1608.5C 300.752,1599.66 299.752,1591 298.5,1582.5C 298.721,1579.72 298.388,1577.05 297.5,1574.5C 297.152,1558.97 296.152,1543.64 294.5,1528.5C 284.957,1219.94 378.124,947.604 574,711.5C 759.465,496.627 992.632,363.127 1273.5,311C 1355.61,297.05 1438.27,291.55 1521.5,294.5 Z"/></g>
<g><path style="opacity:1" fill="#393738" d="M 1521.5,294.5 C 1539.39,294.316 1557.05,295.316 1574.5,297.5C 1556.66,296.819 1539,295.819 1521.5,294.5 Z"/></g>
<g><path style="opacity:1" fill="#3e3c3d" d="M 1582.5,298.5 C 1588.51,298.334 1594.51,298.501 1600.5,299C 1603.19,299.156 1605.52,299.989 1607.5,301.5C 1599.01,300.687 1590.67,299.687 1582.5,298.5 Z"/></g>
<g><path style="opacity:1" fill="#302e2f" d="M 1508.5,317.5 C 1477.49,317.373 1446.49,317.707 1415.5,318.5C 1433.98,317.004 1452.64,316.337 1471.5,316.5C 1484,316.5 1496.34,316.833 1508.5,317.5 Z"/></g>
<g><path style="opacity:1" fill="#000000" d="M 1508.5,317.5 C 1775.65,326.904 2011.98,415.737 2217.5,584C 2385.5,724.902 2504.84,899.402 2575.5,1107.5C 2576.34,1113.7 2578.34,1119.37 2581.5,1124.5C 2599.4,1181.09 2612.73,1238.76 2621.5,1297.5C 2622.76,1309.52 2624.26,1321.52 2626,1333.5C 2626.23,1334.74 2626.73,1335.74 2627.5,1336.5C 2627.5,1337.83 2627.5,1339.17 2627.5,1340.5C 2627.33,1344.18 2627.5,1347.85 2628,1351.5C 2628.23,1352.74 2628.73,1353.74 2629.5,1354.5C 2631.49,1373.12 2632.83,1391.78 2633.5,1410.5C 2633.16,1424.04 2633.83,1437.37 2635.5,1450.5C 2638.01,1758.89 2537.51,2027.56 2334,2256.5C 2130.65,2475.26 1879.48,2600.09 1580.5,2631C 1496.33,2638.18 1412.33,2636.68 1328.5,2626.5C 1328.08,2625.78 1327.42,2625.28 1326.5,2625C 1316.84,2623.6 1307.17,2622.43 1297.5,2621.5C 1287.4,2619.1 1277.07,2617.43 1266.5,2616.5C 1218.28,2608.28 1170.95,2596.61 1124.5,2581.5C 1119.37,2578.34 1113.7,2576.34 1107.5,2575.5C 884.463,2499.1 700.629,2368.1 556,2182.5C 389.839,1961.99 310.172,1712.99 317,1435.5C 317.839,1414.06 319.339,1392.73 321.5,1371.5C 323.844,1358.75 325.177,1345.75 325.5,1332.5C 325.5,1331.17 325.5,1329.83 325.5,1328.5C 326.222,1328.08 326.722,1327.42 327,1326.5C 327.83,1321.19 328.33,1315.86 328.5,1310.5C 335.119,1262.9 344.619,1215.9 357,1169.5C 360.57,1155.86 364.736,1142.53 369.5,1129.5C 372.589,1122.56 374.922,1115.23 376.5,1107.5C 455.953,875.93 593.62,687.097 789.5,541C 882.563,472.959 983.897,419.793 1093.5,381.5C 1105.78,378.072 1117.78,374.072 1129.5,369.5C 1176.5,354.213 1224.5,342.547 1273.5,334.5C 1281.73,333.795 1289.73,332.461 1297.5,330.5C 1297.83,330.5 1298.17,330.5 1298.5,330.5C 1316.33,328.397 1334,326.063 1351.5,323.5C 1364.73,322.996 1377.73,321.663 1390.5,319.5C 1398.82,318.945 1407.16,318.612 1415.5,318.5C 1446.49,317.707 1477.49,317.373 1508.5,317.5 Z"/></g>
<g><path style="opacity:1" fill="#343233" d="M 1390.5,319.5 C 1377.73,321.663 1364.73,322.996 1351.5,323.5C 1364.29,321.564 1377.29,320.23 1390.5,319.5 Z"/></g>
<g><path style="opacity:1" fill="#2e2c2d" d="M 1746.5,324.5 C 1752.62,325.131 1758.62,326.297 1764.5,328C 1767.19,328.728 1769.52,329.895 1771.5,331.5C 1762.99,329.48 1754.66,327.147 1746.5,324.5 Z"/></g>
<g><path style="opacity:1" fill="#333132" d="M 1351.5,323.5 C 1334,326.063 1316.33,328.397 1298.5,330.5C 1315.85,326.788 1333.52,324.455 1351.5,323.5 Z"/></g>
<g><path style="opacity:1" fill="#373536" d="M 1297.5,330.5 C 1289.73,332.461 1281.73,333.795 1273.5,334.5C 1281.2,332.106 1289.2,330.773 1297.5,330.5 Z"/></g>
<g><path style="opacity:1" fill="#2f2d2e" d="M 1836.5,349.5 C 1845.7,351.341 1854.36,354.341 1862.5,358.5C 1853.61,355.871 1844.94,352.871 1836.5,349.5 Z"/></g>
<g><path style="opacity:1" fill="#343233" d="M 1129.5,369.5 C 1117.78,374.072 1105.78,378.072 1093.5,381.5C 1105.09,376.527 1117.09,372.527 1129.5,369.5 Z"/></g>
<g><path style="opacity:1" fill="#3e3d3d" d="M 2410.5,529.5 C 2417.83,536.167 2424.83,543.167 2431.5,550.5C 2424.26,544.762 2417.42,538.428 2411,531.5C 2410.54,530.906 2410.37,530.239 2410.5,529.5 Z"/></g>
<g><path style="opacity:1" fill="#383738" d="M 552.5,518.5 C 552.631,519.239 552.464,519.906 552,520.5C 541.247,531.757 530.08,542.423 518.5,552.5C 529.5,540.833 540.833,529.5 552.5,518.5 Z"/></g>
<g><path style="opacity:1" fill="#591316" d="M 1491.5,577.5 C 1488.51,569.605 1485.51,561.605 1482.5,553.5C 1478.28,561.997 1475.11,570.997 1473,580.5C 1472.62,581.056 1472.12,581.389 1471.5,581.5C 1473.75,572.406 1476.42,563.406 1479.5,554.5C 1480.34,551.99 1481.84,551.323 1484,552.5C 1487.01,560.708 1489.51,569.042 1491.5,577.5 Z"/></g>
<g><path style="opacity:1" fill="#eb1b24" d="M 1491.5,577.5 C 1491.26,578.791 1491.6,579.791 1492.5,580.5C 1494.1,589.269 1496.77,597.602 1500.5,605.5C 1500.26,607.898 1500.93,609.898 1502.5,611.5C 1503.45,612.919 1503.78,614.585 1503.5,616.5C 1505.8,624.391 1508.46,632.058 1511.5,639.5C 1512.17,643.167 1512.83,646.833 1513.5,650.5C 1547.01,650.835 1580.35,651.835 1613.5,653.5C 1610.48,656.516 1607.15,659.183 1603.5,661.5C 1600.04,662.551 1597.37,664.551 1595.5,667.5C 1593.25,668.415 1591.25,669.748 1589.5,671.5C 1587.25,672.08 1585.58,673.413 1584.5,675.5C 1583.5,676.167 1582.5,676.833 1581.5,677.5C 1577.29,679.435 1573.63,682.102 1570.5,685.5C 1570.17,685.5 1569.83,685.5 1569.5,685.5C 1566.55,687.122 1563.88,689.122 1561.5,691.5C 1555.72,695.04 1550.39,699.04 1545.5,703.5C 1542.8,703.845 1540.8,705.178 1539.5,707.5C 1534.82,709.21 1533.32,712.543 1535,717.5C 1535.23,718.737 1535.73,719.737 1536.5,720.5C 1538.64,726.236 1540.97,731.903 1543.5,737.5C 1543.26,738.791 1543.6,739.791 1544.5,740.5C 1545.94,748.283 1548.27,755.617 1551.5,762.5C 1551.5,763.167 1551.5,763.833 1551.5,764.5C 1556.14,778.769 1560.47,793.102 1564.5,807.5C 1562.31,807.296 1560.31,806.63 1558.5,805.5C 1557.42,803.413 1555.75,802.08 1553.5,801.5C 1551.74,800.674 1550.4,799.341 1549.5,797.5C 1545.09,793.446 1540.42,789.613 1535.5,786C 1534.21,785.51 1532.87,785.343 1531.5,785.5C 1530.4,782.227 1528.07,780.561 1524.5,780.5C 1523.55,776.88 1521.22,775.213 1517.5,775.5C 1513.41,773.534 1509.75,770.867 1506.5,767.5C 1505.54,763.892 1503.2,762.226 1499.5,762.5C 1498.24,758.562 1495.57,756.562 1491.5,756.5C 1489.12,754.115 1486.45,752.115 1483.5,750.5C 1481.91,749.379 1480.24,749.546 1478.5,751C 1474.87,753.624 1471.54,756.458 1468.5,759.5C 1463.22,762.145 1458.22,765.312 1453.5,769C 1450.33,771 1447.67,773.5 1445.5,776.5C 1442.33,777.01 1439.99,778.677 1438.5,781.5C 1436.15,782.34 1434.15,783.674 1432.5,785.5C 1428.98,786.759 1425.98,788.759 1423.5,791.5C 1423.17,792.5 1422.5,793.167 1421.5,793.5C 1419.25,794.08 1417.58,795.413 1416.5,797.5C 1415.5,798.167 1414.5,798.833 1413.5,799.5C 1410.47,801.016 1407.8,803.016 1405.5,805.5C 1403.61,806.048 1401.94,807.048 1400.5,808.5C 1400.17,807.667 1399.83,806.833 1399.5,806C 1402.24,797.519 1404.91,789.019 1407.5,780.5C 1407.5,779.5 1407.5,778.5 1407.5,777.5C 1415.55,757.702 1422.22,737.368 1427.5,716.5C 1429.44,714.989 1429.94,712.989 1429,710.5C 1428.18,709.177 1427.02,708.511 1425.5,708.5C 1421.9,703.422 1417.23,699.756 1411.5,697.5C 1408.83,695.83 1406.16,694.164 1403.5,692.5C 1401.24,688.563 1397.91,686.23 1393.5,685.5C 1392.24,681.562 1389.57,679.562 1385.5,679.5C 1385.5,678.167 1384.83,677.5 1383.5,677.5C 1383.59,676.504 1383.25,675.671 1382.5,675C 1380.11,673.807 1377.78,672.64 1375.5,671.5C 1372.95,668.916 1370.29,666.416 1367.5,664C 1369.27,663.465 1369.6,662.631 1368.5,661.5C 1367.71,661.931 1366.87,662.265 1366,662.5C 1363.41,660.727 1360.58,659.727 1357.5,659.5C 1357.17,658.833 1356.83,658.167 1356.5,657.5C 1355.98,655.292 1354.64,653.792 1352.5,653C 1385.88,652.174 1419.21,652.341 1452.5,653.5C 1452.3,648.233 1452.96,642.9 1454.5,637.5C 1454.83,636.167 1455.17,634.833 1455.5,633.5C 1455.5,632.5 1455.5,631.5 1455.5,630.5C 1457.28,629.01 1457.95,627.01 1457.5,624.5C 1460.4,619.646 1462.4,614.312 1463.5,608.5C 1463.5,607.5 1463.5,606.5 1463.5,605.5C 1465.2,602.744 1466.54,599.744 1467.5,596.5C 1467.5,595.5 1467.5,594.5 1467.5,593.5C 1469.4,590.482 1470.73,587.149 1471.5,583.5C 1471.5,582.833 1471.5,582.167 1471.5,581.5C 1472.12,581.389 1472.62,581.056 1473,580.5C 1475.11,570.997 1478.28,561.997 1482.5,553.5C 1485.51,561.605 1488.51,569.605 1491.5,577.5 Z"/></g>
<g><path style="opacity:1" fill="#5b1316" d="M 1492.5,580.5 C 1495.94,588.498 1498.61,596.831 1500.5,605.5C 1496.77,597.602 1494.1,589.269 1492.5,580.5 Z"/></g>
<g><path style="opacity:1" fill="#5d1115" d="M 1471.5,583.5 C 1470.73,587.149 1469.4,590.482 1467.5,593.5C 1467.88,589.668 1469.21,586.335 1471.5,583.5 Z"/></g>
<g><path style="opacity:1" fill="#591316" d="M 1467.5,596.5 C 1466.54,599.744 1465.2,602.744 1463.5,605.5C 1463.71,601.818 1465.04,598.818 1467.5,596.5 Z"/></g>
<g><path style="opacity:1" fill="#541114" d="M 1500.5,605.5 C 1502.07,607.102 1502.74,609.102 1502.5,611.5C 1500.93,609.898 1500.26,607.898 1500.5,605.5 Z"/></g>
<g><path style="opacity:1" fill="#601418" d="M 1463.5,608.5 C 1462.4,614.312 1460.4,619.646 1457.5,624.5C 1458.2,620.044 1459.36,615.71 1461,611.5C 1461.38,610.058 1462.21,609.058 1463.5,608.5 Z"/></g>
<g><path style="opacity:1" fill="#521013" d="M 1503.5,616.5 C 1507.33,623.637 1509.99,631.303 1511.5,639.5C 1508.46,632.058 1505.8,624.391 1503.5,616.5 Z"/></g>
<g><path style="opacity:1" fill="#62191d" d="M 1457.5,624.5 C 1457.95,627.01 1457.28,629.01 1455.5,630.5C 1455.59,628.214 1456.26,626.214 1457.5,624.5 Z"/></g>
<g><path style="opacity:1" fill="#541114" d="M 1455.5,633.5 C 1455.17,634.833 1454.83,636.167 1454.5,637.5C 1453.17,640.5 1451.83,643.5 1450.5,646.5C 1450.84,641.459 1452.5,637.126 1455.5,633.5 Z"/></g>
<g><path style="opacity:1" fill="#300c0d" d="M 1450.5,646.5 C 1450.74,647.791 1450.4,648.791 1449.5,649.5C 1414.82,648.84 1380.48,649.507 1346.5,651.5C 1345.6,650.791 1345.26,649.791 1345.5,648.5C 1380.72,649.15 1415.72,648.483 1450.5,646.5 Z"/></g>
<g><path style="opacity:1" fill="#330e0f" d="M 1514.5,648.5 C 1550.17,648.333 1585.83,648.5 1621.5,649C 1620.53,650.481 1619.2,651.315 1617.5,651.5C 1583.35,649.835 1549.01,648.835 1514.5,648.5 Z"/></g>
<g><path style="opacity:1" fill="#8d191e" d="M 1449.5,649.5 C 1416,650.332 1382.34,650.832 1348.5,651C 1349.38,651.708 1350.05,652.542 1350.5,653.5C 1348.94,653.267 1347.6,652.6 1346.5,651.5C 1380.48,649.507 1414.82,648.84 1449.5,649.5 Z"/></g>
<g><path style="opacity:1" fill="#8b191e" d="M 1511.5,639.5 C 1513.07,642.215 1514.07,645.215 1514.5,648.5C 1549.01,648.835 1583.35,649.835 1617.5,651.5C 1617.17,651.5 1616.83,651.5 1616.5,651.5C 1582.34,650.502 1548,650.168 1513.5,650.5C 1512.83,646.833 1512.17,643.167 1511.5,639.5 Z"/></g>
<g><path style="opacity:1" fill="#d1272e" d="M 1513.5,650.5 C 1548,650.168 1582.34,650.502 1616.5,651.5C 1615.5,652.167 1614.5,652.833 1613.5,653.5C 1580.35,651.835 1547.01,650.835 1513.5,650.5 Z"/></g>
<g><path style="opacity:1" fill="#de2129" d="M 1454.5,637.5 C 1452.96,642.9 1452.3,648.233 1452.5,653.5C 1419.21,652.341 1385.88,652.174 1352.5,653C 1354.64,653.792 1355.98,655.292 1356.5,657.5C 1354.15,656.66 1352.15,655.326 1350.5,653.5C 1350.05,652.542 1349.38,651.708 1348.5,651C 1382.34,650.832 1416,650.332 1449.5,649.5C 1450.4,648.791 1450.74,647.791 1450.5,646.5C 1451.83,643.5 1453.17,640.5 1454.5,637.5 Z"/></g>
<g><path style="opacity:1" fill="#b42126" d="M 1357.5,659.5 C 1360.58,659.727 1363.41,660.727 1366,662.5C 1366.87,662.265 1367.71,661.931 1368.5,661.5C 1369.6,662.631 1369.27,663.465 1367.5,664C 1370.29,666.416 1372.95,668.916 1375.5,671.5C 1368.84,668.501 1362.84,664.501 1357.5,659.5 Z"/></g>
<g><path style="opacity:1" fill="#6a1519" d="M 1603.5,661.5 C 1601.23,663.975 1598.56,665.975 1595.5,667.5C 1597.37,664.551 1600.04,662.551 1603.5,661.5 Z"/></g>
<g><path style="opacity:1" fill="#9e2025" d="M 1375.5,671.5 C 1377.78,672.64 1380.11,673.807 1382.5,675C 1383.25,675.671 1383.59,676.504 1383.5,677.5C 1379.95,676.615 1377.29,674.615 1375.5,671.5 Z"/></g>
<g><path style="opacity:1" fill="#551215" d="M 1589.5,671.5 C 1588.42,673.587 1586.75,674.92 1584.5,675.5C 1585.58,673.413 1587.25,672.08 1589.5,671.5 Z"/></g>
<g><path style="opacity:1" fill="#76181b" d="M 1383.5,677.5 C 1384.83,677.5 1385.5,678.167 1385.5,679.5C 1384.17,679.5 1383.5,678.833 1383.5,677.5 Z"/></g>
<g><path style="opacity:1" fill="#981e22" d="M 1385.5,679.5 C 1389.57,679.562 1392.24,681.562 1393.5,685.5C 1390.47,683.984 1387.8,681.984 1385.5,679.5 Z"/></g>
<g><path style="opacity:1" fill="#5a1316" d="M 1581.5,677.5 C 1578.37,680.898 1574.71,683.565 1570.5,685.5C 1573.63,682.102 1577.29,679.435 1581.5,677.5 Z"/></g>
<g><path style="opacity:1" fill="#931e22" d="M 1393.5,685.5 C 1397.91,686.23 1401.24,688.563 1403.5,692.5C 1399.81,690.656 1396.48,688.323 1393.5,685.5 Z"/></g>
<g><path style="opacity:1" fill="#72161b" d="M 1569.5,685.5 C 1567.69,688.647 1565.02,690.647 1561.5,691.5C 1563.88,689.122 1566.55,687.122 1569.5,685.5 Z"/></g>
<g><path style="opacity:1" fill="#6b161a" d="M 1561.5,691.5 C 1556.89,696.472 1551.55,700.472 1545.5,703.5C 1550.39,699.04 1555.72,695.04 1561.5,691.5 Z"/></g>
<g><path style="opacity:1" fill="#982025" d="M 1411.5,697.5 C 1417.23,699.756 1421.9,703.422 1425.5,708.5C 1422.65,706.491 1419.65,704.657 1416.5,703C 1414.31,701.588 1412.65,699.755 1411.5,697.5 Z"/></g>
<g><path style="opacity:1" fill="#79161b" d="M 1545.5,703.5 C 1543.85,705.326 1541.85,706.66 1539.5,707.5C 1540.8,705.178 1542.8,703.845 1545.5,703.5 Z"/></g>
<g><path style="opacity:1" fill="#611417" d="M 1425.5,708.5 C 1427.02,708.511 1428.18,709.177 1429,710.5C 1429.94,712.989 1429.44,714.989 1427.5,716.5C 1427.42,715.07 1427.75,713.736 1428.5,712.5C 1427.48,711.148 1426.48,709.815 1425.5,708.5 Z"/></g>
<g><path style="opacity:1" fill="#a01e24" d="M 1539.5,707.5 C 1538.54,708.962 1537.38,710.295 1536,711.5C 1535.22,713.387 1535.39,715.054 1536.5,716.5C 1536.5,717.833 1536.5,719.167 1536.5,720.5C 1535.73,719.737 1535.23,718.737 1535,717.5C 1533.32,712.543 1534.82,709.21 1539.5,707.5 Z"/></g>
<g><path style="opacity:1" fill="#611316" d="M 1536.5,716.5 C 1539.41,723.216 1541.74,730.216 1543.5,737.5C 1540.97,731.903 1538.64,726.236 1536.5,720.5C 1536.5,719.167 1536.5,717.833 1536.5,716.5 Z"/></g>
<g><path style="opacity:1" fill="#5c1316" d="M 1427.5,716.5 C 1422.22,737.368 1415.55,757.702 1407.5,777.5C 1413.8,756.936 1420.47,736.603 1427.5,716.5 Z"/></g>
<g><path style="opacity:1" fill="#561315" d="M 1544.5,740.5 C 1547.61,747.499 1549.94,754.832 1551.5,762.5C 1548.27,755.617 1545.94,748.283 1544.5,740.5 Z"/></g>
<g><path style="opacity:1" fill="#73171a" d="M 1483.5,750.5 C 1478.24,753.102 1473.24,756.102 1468.5,759.5C 1471.54,756.458 1474.87,753.624 1478.5,751C 1480.24,749.546 1481.91,749.379 1483.5,750.5 Z"/></g>
<g><path style="opacity:1" fill="#921e22" d="M 1491.5,756.5 C 1495.57,756.562 1498.24,758.562 1499.5,762.5C 1496.47,760.984 1493.8,758.984 1491.5,756.5 Z"/></g>
<g><path style="opacity:1" fill="#8e1e21" d="M 1499.5,762.5 C 1503.2,762.226 1505.54,763.892 1506.5,767.5C 1503.88,766.214 1501.55,764.547 1499.5,762.5 Z"/></g>
<g><path style="opacity:1" fill="#66171a" d="M 1551.5,764.5 C 1556.98,777.434 1561.82,790.767 1566,804.5C 1566.5,806.473 1566.66,808.473 1566.5,810.5C 1564.42,809.956 1562.42,809.122 1560.5,808C 1559.62,807.292 1558.95,806.458 1558.5,805.5C 1560.31,806.63 1562.31,807.296 1564.5,807.5C 1560.47,793.102 1556.14,778.769 1551.5,764.5 Z"/></g>
<g><path style="opacity:1" fill="#691519" d="M 1468.5,759.5 C 1461.38,765.896 1453.71,771.563 1445.5,776.5C 1447.67,773.5 1450.33,771 1453.5,769C 1458.22,765.312 1463.22,762.145 1468.5,759.5 Z"/></g>
<g><path style="opacity:1" fill="#971f23" d="M 1517.5,775.5 C 1521.22,775.213 1523.55,776.88 1524.5,780.5C 1521.63,779.567 1519.3,777.9 1517.5,775.5 Z"/></g>
<g><path style="opacity:1" fill="#581315" d="M 1445.5,776.5 C 1443.45,778.547 1441.12,780.214 1438.5,781.5C 1439.99,778.677 1442.33,777.01 1445.5,776.5 Z"/></g>
<g><path style="opacity:1" fill="#961f24" d="M 1524.5,780.5 C 1528.07,780.561 1530.4,782.227 1531.5,785.5C 1528.63,784.567 1526.3,782.9 1524.5,780.5 Z"/></g>
<g><path style="opacity:1" fill="#5e1216" d="M 1438.5,781.5 C 1437.2,783.822 1435.2,785.155 1432.5,785.5C 1434.15,783.674 1436.15,782.34 1438.5,781.5 Z"/></g>
<g><path style="opacity:1" fill="#461313" d="M 1432.5,785.5 C 1431.14,789.658 1428.14,791.658 1423.5,791.5C 1425.98,788.759 1428.98,786.759 1432.5,785.5 Z"/></g>
<g><path style="opacity:1" fill="#6b181b" d="M 1407.5,780.5 C 1404.91,789.019 1402.24,797.519 1399.5,806C 1399.83,806.833 1400.17,807.667 1400.5,808.5C 1401.94,807.048 1403.61,806.048 1405.5,805.5C 1403.81,808.682 1401.14,810.348 1397.5,810.5C 1398.28,804.669 1399.78,799.002 1402,793.5C 1403.18,788.745 1405.02,784.412 1407.5,780.5 Z"/></g>
<g><path style="opacity:1" fill="#ac2126" d="M 1531.5,785.5 C 1532.87,785.343 1534.21,785.51 1535.5,786C 1540.42,789.613 1545.09,793.446 1549.5,797.5C 1547.82,797.108 1546.15,796.608 1544.5,796C 1540.5,792.012 1536.17,788.512 1531.5,785.5 Z"/></g>
<g><path style="opacity:1" fill="#5a1316" d="M 1421.5,793.5 C 1420.42,795.587 1418.75,796.92 1416.5,797.5C 1417.58,795.413 1419.25,794.08 1421.5,793.5 Z"/></g>
<g><path style="opacity:1" fill="#5e1316" d="M 1413.5,799.5 C 1411.56,802.471 1408.89,804.471 1405.5,805.5C 1407.8,803.016 1410.47,801.016 1413.5,799.5 Z"/></g>
<g><path style="opacity:1" fill="#601518" d="M 1553.5,801.5 C 1555.75,802.08 1557.42,803.413 1558.5,805.5C 1556.25,804.92 1554.58,803.587 1553.5,801.5 Z"/></g>
<g><path style="opacity:1" fill="#302e2d" d="M 2283.5,917.5 C 2281.16,911.162 2279.83,904.495 2279.5,897.5C 1746.17,897.5 1212.83,897.5 679.5,897.5C 676.052,930.21 664.052,959.21 643.5,984.5C 643.351,983.448 643.517,982.448 644,981.5C 663.809,956.256 675.309,927.589 678.5,895.5C 1212.5,895.5 1746.5,895.5 2280.5,895.5C 2281.32,902.878 2282.32,910.212 2283.5,917.5 Z"/></g>
<g><path style="opacity:1" fill="#fefefe" d="M 2283.5,917.5 C 2290.21,947.598 2304.21,973.598 2325.5,995.5C 2336.06,1006.74 2348.06,1016.07 2361.5,1023.5C 2378.11,1033.79 2396.11,1040.79 2415.5,1044.5C 2416.5,1044.5 2417.5,1044.5 2418.5,1044.5C 2421.63,1045.58 2424.96,1046.25 2428.5,1046.5C 2428.5,1319.17 2428.5,1591.83 2428.5,1864.5C 2415.98,1865.3 2403.98,1867.97 2392.5,1872.5C 2392.17,1872.5 2391.83,1872.5 2391.5,1872.5C 2331.62,1895.24 2294.79,1937.9 2281,2000.5C 2279.43,2008.76 2278.59,2017.1 2278.5,2025.5C 1745.83,2025.5 1213.17,2025.5 680.5,2025.5C 680.913,2016.53 679.913,2007.86 677.5,1999.5C 674.497,1981.15 668.164,1964.15 658.5,1948.5C 651.704,1936.04 643.371,1924.7 633.5,1914.5C 632.5,1912.83 631.167,1911.5 629.5,1910.5C 606.433,1888.3 579.1,1873.96 547.5,1867.5C 538.5,1864.79 529.167,1863.46 519.5,1863.5C 518.501,1591.57 518.168,1319.57 518.5,1047.5C 520.415,1047.78 522.081,1047.45 523.5,1046.5C 559.333,1044.4 591,1032.07 618.5,1009.5C 627.833,1002.17 636.167,993.833 643.5,984.5C 664.052,959.21 676.052,930.21 679.5,897.5C 1212.83,897.5 1746.17,897.5 2279.5,897.5C 2279.83,904.495 2281.16,911.162 2283.5,917.5 Z"/></g>
<g><path style="opacity:1" fill="#272526" d="M 2283.5,917.5 C 2290.99,945.484 2304.49,970.151 2324,991.5C 2324.79,992.745 2325.29,994.078 2325.5,995.5C 2304.21,973.598 2290.21,947.598 2283.5,917.5 Z"/></g>
<g><path style="opacity:1" fill="#2e2c2d" d="M 2361.5,1023.5 C 2369.1,1026.97 2376.77,1030.47 2384.5,1034C 2395.1,1037.48 2405.43,1040.98 2415.5,1044.5C 2396.11,1040.79 2378.11,1033.79 2361.5,1023.5 Z"/></g>
<g><path style="opacity:1" fill="#222021" d="M 2418.5,1044.5 C 2422.17,1044.5 2425.83,1044.5 2429.5,1044.5C 2429.5,1318.17 2429.5,1591.83 2429.5,1865.5C 2417.01,1867.04 2404.67,1869.37 2392.5,1872.5C 2403.98,1867.97 2415.98,1865.3 2428.5,1864.5C 2428.5,1591.83 2428.5,1319.17 2428.5,1046.5C 2424.96,1046.25 2421.63,1045.58 2418.5,1044.5 Z"/></g>
<g><path style="opacity:1" fill="#222021" d="M 618.5,1009.5 C 591,1032.07 559.333,1044.4 523.5,1046.5C 521.5,1046.5 519.5,1046.5 517.5,1046.5C 516.834,1319.17 517.501,1591.5 519.5,1863.5C 529.167,1863.46 538.5,1864.79 547.5,1867.5C 537.199,1866.17 526.866,1865.17 516.5,1864.5C 516.5,1591.5 516.5,1318.5 516.5,1045.5C 553.484,1044.45 586.484,1032.62 615.5,1010C 616.448,1009.52 617.448,1009.35 618.5,1009.5 Z"/></g>
<g><path style="opacity:1" fill="#e7e7e7" d="M 523.5,1046.5 C 522.081,1047.45 520.415,1047.78 518.5,1047.5C 518.168,1319.57 518.501,1591.57 519.5,1863.5C 517.501,1591.5 516.834,1319.17 517.5,1046.5C 519.5,1046.5 521.5,1046.5 523.5,1046.5 Z"/></g>
<g><path style="opacity:1" fill="#020202" d="M 1358.5,1207.5 C 1341.83,1207.5 1325.17,1207.5 1308.5,1207.5C 1308.83,1173 1308.5,1138.66 1307.5,1104.5C 1302.97,1087.56 1291.97,1080.72 1274.5,1084C 1266.58,1087.59 1261.08,1093.42 1258,1101.5C 1257.33,1231.5 1257.33,1361.5 1258,1491.5C 1265.58,1508.71 1278.08,1513.87 1295.5,1507C 1300.05,1503.75 1303.55,1499.58 1306,1494.5C 1307.48,1458.23 1307.98,1421.89 1307.5,1385.5C 1324.5,1385.5 1341.5,1385.5 1358.5,1385.5C 1358.67,1411.84 1358.5,1438.17 1358,1464.5C 1352.98,1489.53 1338.48,1506.7 1314.5,1516C 1282.8,1527.37 1253.8,1522.71 1227.5,1502C 1218.08,1493.33 1211.58,1482.83 1208,1470.5C 1206.85,1411.86 1206.35,1353.19 1206.5,1294.5C 1206.67,1238.5 1206.83,1182.5 1207,1126.5C 1212.05,1106.11 1223.88,1090.94 1242.5,1081C 1273.6,1066.73 1303.6,1068.73 1332.5,1087C 1345.38,1096.89 1353.88,1109.73 1358,1125.5C 1358.5,1152.83 1358.67,1180.16 1358.5,1207.5 Z"/></g>
<g><path style="opacity:1" fill="#3f3f3f" d="M 753.5,1075.5 C 720.833,1075.5 688.167,1075.5 655.5,1075.5C 655.5,1078.83 655.5,1082.17 655.5,1085.5C 660.695,1085.18 665.695,1085.51 670.5,1086.5C 665.167,1086.5 659.833,1086.5 654.5,1086.5C 654.5,1082.5 654.5,1078.5 654.5,1074.5C 687.671,1074.17 720.671,1074.5 753.5,1075.5 Z"/></g>
<g><path style="opacity:1" fill="#3d3d3d" d="M 930.5,1075.5 C 903.167,1075.5 875.833,1075.5 848.5,1075.5C 848.5,1078.83 848.5,1082.17 848.5,1085.5C 853.695,1085.18 858.695,1085.51 863.5,1086.5C 858.167,1086.5 852.833,1086.5 847.5,1086.5C 847.5,1082.5 847.5,1078.5 847.5,1074.5C 875.338,1074.17 903.005,1074.5 930.5,1075.5 Z"/></g>
<g><path style="opacity:1" fill="#383838" d="M 1126.5,1075.5 C 1109.5,1075.5 1092.5,1075.5 1075.5,1075.5C 1075.74,1076.79 1075.4,1077.79 1074.5,1078.5C 1074.5,1077.17 1074.5,1075.83 1074.5,1074.5C 1092.01,1074.17 1109.34,1074.5 1126.5,1075.5 Z"/></g>
<g><path style="opacity:1" fill="#3d3d3d" d="M 1469.5,1075.5 C 1442.17,1075.5 1414.83,1075.5 1387.5,1075.5C 1387.5,1078.83 1387.5,1082.17 1387.5,1085.5C 1392.69,1085.18 1397.69,1085.51 1402.5,1086.5C 1397.17,1086.5 1391.83,1086.5 1386.5,1086.5C 1386.5,1082.5 1386.5,1078.5 1386.5,1074.5C 1414.34,1074.17 1442.01,1074.5 1469.5,1075.5 Z"/></g>
<g><path style="opacity:1" fill="#404040" d="M 1508.5,1075.5 C 1508.5,1075.17 1508.5,1074.83 1508.5,1074.5C 1524.17,1074.5 1539.83,1074.5 1555.5,1074.5C 1555.5,1078.5 1555.5,1082.5 1555.5,1086.5C 1550.17,1086.5 1544.83,1086.5 1539.5,1086.5C 1544.31,1085.51 1549.31,1085.18 1554.5,1085.5C 1554.5,1082.17 1554.5,1078.83 1554.5,1075.5C 1539.17,1075.5 1523.83,1075.5 1508.5,1075.5 Z"/></g>
<g><path style="opacity:1" fill="#393939" d="M 1832.5,1075.5 C 1781.17,1075.5 1729.83,1075.5 1678.5,1075.5C 1678.5,1078.83 1678.5,1082.17 1678.5,1085.5C 1683.69,1085.18 1688.69,1085.51 1693.5,1086.5C 1688.17,1086.5 1682.83,1086.5 1677.5,1086.5C 1677.5,1082.5 1677.5,1078.5 1677.5,1074.5C 1729.34,1074.17 1781,1074.5 1832.5,1075.5 Z"/></g>
<g><path style="opacity:1" fill="#3d3d3d" d="M 2051.5,1075.5 C 2019.83,1075.5 1988.17,1075.5 1956.5,1075.5C 1956.5,1078.83 1956.5,1082.17 1956.5,1085.5C 1961.69,1085.18 1966.69,1085.51 1971.5,1086.5C 1966.17,1086.5 1960.83,1086.5 1955.5,1086.5C 1955.5,1082.5 1955.5,1078.5 1955.5,1074.5C 1987.67,1074.17 2019.67,1074.5 2051.5,1075.5 Z"/></g>
<g><path style="opacity:1" fill="#393939" d="M 2310.5,1075.5 C 2257.83,1075.5 2205.17,1075.5 2152.5,1075.5C 2152.5,1078.83 2152.5,1082.17 2152.5,1085.5C 2157.69,1085.18 2162.69,1085.51 2167.5,1086.5C 2162.17,1086.5 2156.83,1086.5 2151.5,1086.5C 2151.5,1082.5 2151.5,1078.5 2151.5,1074.5C 2204.67,1074.17 2257.67,1074.5 2310.5,1075.5 Z"/></g>
<g><path style="opacity:1" fill="#000000" d="M 753.5,1075.5 C 778.569,1078.11 798.069,1089.77 812,1110.5C 815.522,1116.4 817.855,1122.73 819,1129.5C 819.667,1164.17 819.667,1198.83 819,1233.5C 816.006,1253.66 805.506,1268.49 787.5,1278C 783.714,1279.39 780.048,1281.06 776.5,1283C 790.437,1289.2 801.937,1298.37 811,1310.5C 814.78,1316.73 817.447,1323.39 819,1330.5C 819.969,1376.2 819.636,1421.87 818,1467.5C 810.033,1492.13 793.533,1507.96 768.5,1515C 763.9,1516.32 759.234,1517.32 754.5,1518C 721.502,1518.5 688.502,1518.67 655.5,1518.5C 655.5,1514.83 655.5,1511.17 655.5,1507.5C 660.833,1507.5 666.167,1507.5 671.5,1507.5C 671.833,1367 671.5,1226.67 670.5,1086.5C 665.695,1085.51 660.695,1085.18 655.5,1085.5C 655.5,1082.17 655.5,1078.83 655.5,1075.5C 688.167,1075.5 720.833,1075.5 753.5,1075.5 Z"/></g>
<g><path style="opacity:1" fill="#000000" d="M 930.5,1075.5 C 930.5,1079.17 930.5,1082.83 930.5,1086.5C 925.167,1086.5 919.833,1086.5 914.5,1086.5C 914.5,1226.5 914.5,1366.5 914.5,1506.5C 926.989,1507.5 939.656,1507.83 952.5,1507.5C 952.5,1466.83 952.5,1426.17 952.5,1385.5C 969.167,1385.5 985.833,1385.5 1002.5,1385.5C 1002.5,1429.83 1002.5,1474.17 1002.5,1518.5C 951.167,1518.5 899.833,1518.5 848.5,1518.5C 848.5,1514.83 848.5,1511.17 848.5,1507.5C 853.833,1507.5 859.167,1507.5 864.5,1507.5C 864.833,1367 864.5,1226.67 863.5,1086.5C 858.695,1085.51 853.695,1085.18 848.5,1085.5C 848.5,1082.17 848.5,1078.83 848.5,1075.5C 875.833,1075.5 903.167,1075.5 930.5,1075.5 Z"/></g>
<g><path style="opacity:1" fill="#010101" d="M 1126.5,1075.5 C 1140.66,1219.45 1154.33,1363.45 1167.5,1507.5C 1172.83,1507.5 1178.17,1507.5 1183.5,1507.5C 1183.5,1511.17 1183.5,1514.83 1183.5,1518.5C 1156.17,1518.5 1128.83,1518.5 1101.5,1518.5C 1101.5,1514.83 1101.5,1511.17 1101.5,1507.5C 1106.83,1507.5 1112.17,1507.5 1117.5,1507.5C 1117.79,1505.26 1117.46,1503.26 1116.5,1501.5C 1113.1,1460.5 1109.77,1419.5 1106.5,1378.5C 1090.83,1378.5 1075.17,1378.5 1059.5,1378.5C 1055.35,1421.49 1051.35,1464.49 1047.5,1507.5C 1052.83,1507.5 1058.17,1507.5 1063.5,1507.5C 1063.5,1511.17 1063.5,1514.83 1063.5,1518.5C 1047.5,1518.5 1031.5,1518.5 1015.5,1518.5C 1015.5,1514.83 1015.5,1511.17 1015.5,1507.5C 1020.83,1507.5 1026.17,1507.5 1031.5,1507.5C 1046.29,1364.55 1060.63,1221.55 1074.5,1078.5C 1075.4,1077.79 1075.74,1076.79 1075.5,1075.5C 1092.5,1075.5 1109.5,1075.5 1126.5,1075.5 Z"/></g>
<g><path style="opacity:1" fill="#010101" d="M 1469.5,1075.5 C 1469.5,1079.17 1469.5,1082.83 1469.5,1086.5C 1464.17,1086.5 1458.83,1086.5 1453.5,1086.5C 1453.33,1149.83 1453.5,1213.17 1454,1276.5C 1477.14,1213.59 1499.97,1150.59 1522.5,1087.5C 1523.04,1087.44 1523.38,1087.11 1523.5,1086.5C 1518.54,1085.51 1513.54,1085.17 1508.5,1085.5C 1508.5,1082.17 1508.5,1078.83 1508.5,1075.5C 1523.83,1075.5 1539.17,1075.5 1554.5,1075.5C 1554.5,1078.83 1554.5,1082.17 1554.5,1085.5C 1549.31,1085.18 1544.31,1085.51 1539.5,1086.5C 1520.8,1136.25 1502.47,1186.25 1484.5,1236.5C 1508.62,1326.64 1531.95,1416.98 1554.5,1507.5C 1559.83,1507.5 1565.17,1507.5 1570.5,1507.5C 1570.5,1511.17 1570.5,1514.83 1570.5,1518.5C 1550.16,1518.83 1529.82,1518.5 1509.5,1517.5C 1490.38,1446.35 1471.88,1375.02 1454,1303.5C 1453.5,1371.5 1453.33,1439.5 1453.5,1507.5C 1458.83,1507.5 1464.17,1507.5 1469.5,1507.5C 1469.5,1511.17 1469.5,1514.83 1469.5,1518.5C 1442.17,1518.5 1414.83,1518.5 1387.5,1518.5C 1387.5,1514.83 1387.5,1511.17 1387.5,1507.5C 1392.83,1507.5 1398.17,1507.5 1403.5,1507.5C 1403.83,1367 1403.5,1226.67 1402.5,1086.5C 1397.69,1085.51 1392.69,1085.18 1387.5,1085.5C 1387.5,1082.17 1387.5,1078.83 1387.5,1075.5C 1414.83,1075.5 1442.17,1075.5 1469.5,1075.5 Z"/></g>
<g><path style="opacity:1" fill="#000000" d="M 1832.5,1075.5 C 1832.5,1119.5 1832.5,1163.5 1832.5,1207.5C 1815.83,1207.5 1799.17,1207.5 1782.5,1207.5C 1782.83,1167 1782.5,1126.66 1781.5,1086.5C 1769.17,1086.5 1756.83,1086.5 1744.5,1086.5C 1744.5,1150.5 1744.5,1214.5 1744.5,1278.5C 1763.17,1278.5 1781.83,1278.5 1800.5,1278.5C 1800.5,1282.17 1800.5,1285.83 1800.5,1289.5C 1781.83,1289.5 1763.17,1289.5 1744.5,1289.5C 1744.5,1362.17 1744.5,1434.83 1744.5,1507.5C 1749.83,1507.5 1755.17,1507.5 1760.5,1507.5C 1760.5,1511.17 1760.5,1514.83 1760.5,1518.5C 1733.17,1518.5 1705.83,1518.5 1678.5,1518.5C 1678.5,1514.83 1678.5,1511.17 1678.5,1507.5C 1683.83,1507.5 1689.17,1507.5 1694.5,1507.5C 1694.83,1367 1694.5,1226.67 1693.5,1086.5C 1688.69,1085.51 1683.69,1085.18 1678.5,1085.5C 1678.5,1082.17 1678.5,1078.83 1678.5,1075.5C 1729.83,1075.5 1781.17,1075.5 1832.5,1075.5 Z"/></g>
<g><path style="opacity:1" fill="#000000" d="M 1935.5,1085.5 C 1930.17,1085.5 1924.83,1085.5 1919.5,1085.5C 1919.5,1226.17 1919.5,1366.83 1919.5,1507.5C 1924.83,1507.5 1930.17,1507.5 1935.5,1507.5C 1935.5,1511.17 1935.5,1514.83 1935.5,1518.5C 1908.17,1518.5 1880.83,1518.5 1853.5,1518.5C 1853.5,1514.83 1853.5,1511.17 1853.5,1507.5C 1858.83,1507.5 1864.17,1507.5 1869.5,1507.5C 1869.5,1366.83 1869.5,1226.17 1869.5,1085.5C 1864.17,1085.5 1858.83,1085.5 1853.5,1085.5C 1853.5,1081.83 1853.5,1078.17 1853.5,1074.5C 1880.83,1074.5 1908.17,1074.5 1935.5,1074.5C 1935.5,1078.17 1935.5,1081.83 1935.5,1085.5 Z"/></g>
<g><path style="opacity:1" fill="#000000" d="M 2051.5,1075.5 C 2077.8,1077.23 2098.3,1088.89 2113,1110.5C 2116.52,1116.4 2118.86,1122.73 2120,1129.5C 2120.95,1166.86 2120.62,1204.19 2119,1241.5C 2115.37,1253.8 2108.54,1263.97 2098.5,1272C 2091.66,1276.25 2084.66,1280.25 2077.5,1284C 2090.15,1289.25 2100.99,1297.08 2110,1307.5C 2113.8,1313.44 2116.8,1319.77 2119,1326.5C 2120.32,1382.79 2120.98,1439.12 2121,1495.5C 2123.09,1503.46 2128.26,1507.46 2136.5,1507.5C 2136.5,1511.17 2136.5,1514.83 2136.5,1518.5C 2125.49,1518.67 2114.49,1518.5 2103.5,1518C 2083.49,1513.99 2072.65,1501.82 2071,1481.5C 2070.67,1424.5 2070.33,1367.5 2070,1310.5C 2067.25,1299.58 2060.42,1292.92 2049.5,1290.5C 2040.68,1289.51 2031.68,1289.17 2022.5,1289.5C 2022.5,1362.17 2022.5,1434.83 2022.5,1507.5C 2027.83,1507.5 2033.17,1507.5 2038.5,1507.5C 2038.5,1511.17 2038.5,1514.83 2038.5,1518.5C 2011.17,1518.5 1983.83,1518.5 1956.5,1518.5C 1956.5,1514.83 1956.5,1511.17 1956.5,1507.5C 1961.83,1507.5 1967.17,1507.5 1972.5,1507.5C 1972.83,1367 1972.5,1226.67 1971.5,1086.5C 1966.69,1085.51 1961.69,1085.18 1956.5,1085.5C 1956.5,1082.17 1956.5,1078.83 1956.5,1075.5C 1988.17,1075.5 2019.83,1075.5 2051.5,1075.5 Z"/></g>
<g><path style="opacity:1" fill="#000000" d="M 2310.5,1075.5 C 2310.5,1119.5 2310.5,1163.5 2310.5,1207.5C 2293.5,1207.5 2276.5,1207.5 2259.5,1207.5C 2259.5,1167.17 2259.5,1126.83 2259.5,1086.5C 2245.83,1086.5 2232.17,1086.5 2218.5,1086.5C 2218.5,1150.5 2218.5,1214.5 2218.5,1278.5C 2238.5,1278.5 2258.5,1278.5 2278.5,1278.5C 2278.5,1282.17 2278.5,1285.83 2278.5,1289.5C 2258.5,1289.5 2238.5,1289.5 2218.5,1289.5C 2218.5,1362.17 2218.5,1434.83 2218.5,1507.5C 2232.34,1507.83 2246.01,1507.5 2259.5,1506.5C 2259.5,1466.17 2259.5,1425.83 2259.5,1385.5C 2276.5,1385.5 2293.5,1385.5 2310.5,1385.5C 2310.5,1429.83 2310.5,1474.17 2310.5,1518.5C 2257.83,1518.5 2205.17,1518.5 2152.5,1518.5C 2152.5,1514.83 2152.5,1511.17 2152.5,1507.5C 2157.83,1507.5 2163.17,1507.5 2168.5,1507.5C 2168.83,1367 2168.5,1226.67 2167.5,1086.5C 2162.69,1085.51 2157.69,1085.18 2152.5,1085.5C 2152.5,1082.17 2152.5,1078.83 2152.5,1075.5C 2205.17,1075.5 2257.83,1075.5 2310.5,1075.5 Z"/></g>
<g><path style="opacity:1" fill="#3b393a" d="M 2743.5,1072.5 C 2745.54,1076.94 2747.2,1081.61 2748.5,1086.5C 2745.68,1082.37 2744.01,1077.7 2743.5,1072.5 Z"/></g>
<g><path style="opacity:1" fill="#707070" d="M 1508.5,1074.5 C 1508.5,1074.83 1508.5,1075.17 1508.5,1075.5C 1508.5,1078.83 1508.5,1082.17 1508.5,1085.5C 1513.54,1085.17 1518.54,1085.51 1523.5,1086.5C 1523.38,1087.11 1523.04,1087.44 1522.5,1087.5C 1517.69,1086.51 1512.69,1086.18 1507.5,1086.5C 1507.18,1082.3 1507.52,1078.3 1508.5,1074.5 Z"/></g>
<g><path style="opacity:1" fill="#5c5c5c" d="M 670.5,1086.5 C 671.5,1226.67 671.833,1367 671.5,1507.5C 666.167,1507.5 660.833,1507.5 655.5,1507.5C 660.305,1506.51 665.305,1506.18 670.5,1506.5C 670.5,1366.5 670.5,1226.5 670.5,1086.5 Z"/></g>
<g><path style="opacity:1" fill="#e4e4e4" d="M 722.5,1086.5 C 722.5,1150.17 722.5,1213.83 722.5,1277.5C 731.167,1277.5 739.833,1277.5 748.5,1277.5C 739.682,1278.49 730.682,1278.83 721.5,1278.5C 721.168,1214.33 721.501,1150.33 722.5,1086.5 Z"/></g>
<g><path style="opacity:1" fill="#fdfdfd" d="M 722.5,1086.5 C 732.898,1086.1 743.232,1086.6 753.5,1088C 761.237,1092.07 766.404,1098.23 769,1106.5C 769.667,1156.83 769.667,1207.17 769,1257.5C 766.215,1268.45 759.381,1275.12 748.5,1277.5C 739.833,1277.5 731.167,1277.5 722.5,1277.5C 722.5,1213.83 722.5,1150.17 722.5,1086.5 Z"/></g>
<g><path style="opacity:1" fill="#5c5c5c" d="M 863.5,1086.5 C 864.5,1226.67 864.833,1367 864.5,1507.5C 859.167,1507.5 853.833,1507.5 848.5,1507.5C 853.305,1506.51 858.305,1506.18 863.5,1506.5C 863.5,1366.5 863.5,1226.5 863.5,1086.5 Z"/></g>
<g><path style="opacity:1" fill="#5c5c5c" d="M 1402.5,1086.5 C 1403.5,1226.67 1403.83,1367 1403.5,1507.5C 1398.17,1507.5 1392.83,1507.5 1387.5,1507.5C 1392.31,1506.51 1397.31,1506.18 1402.5,1506.5C 1402.5,1366.5 1402.5,1226.5 1402.5,1086.5 Z"/></g>
<g><path style="opacity:1" fill="#5c5c5c" d="M 1693.5,1086.5 C 1694.5,1226.67 1694.83,1367 1694.5,1507.5C 1689.17,1507.5 1683.83,1507.5 1678.5,1507.5C 1683.31,1506.51 1688.31,1506.18 1693.5,1506.5C 1693.5,1366.5 1693.5,1226.5 1693.5,1086.5 Z"/></g>
<g><path style="opacity:1" fill="#9c9c9c" d="M 1853.5,1085.5 C 1858.83,1085.5 1864.17,1085.5 1869.5,1085.5C 1869.5,1226.17 1869.5,1366.83 1869.5,1507.5C 1864.17,1507.5 1858.83,1507.5 1853.5,1507.5C 1858.31,1506.51 1863.31,1506.18 1868.5,1506.5C 1868.5,1366.5 1868.5,1226.5 1868.5,1086.5C 1863.31,1086.82 1858.31,1086.49 1853.5,1085.5 Z"/></g>
<g><path style="opacity:1" fill="#a3a3a3" d="M 1935.5,1085.5 C 1930.69,1086.49 1925.69,1086.82 1920.5,1086.5C 1920.5,1226.5 1920.5,1366.5 1920.5,1506.5C 1925.69,1506.18 1930.69,1506.51 1935.5,1507.5C 1930.17,1507.5 1924.83,1507.5 1919.5,1507.5C 1919.5,1366.83 1919.5,1226.17 1919.5,1085.5C 1924.83,1085.5 1930.17,1085.5 1935.5,1085.5 Z"/></g>
<g><path style="opacity:1" fill="#5c5c5c" d="M 1971.5,1086.5 C 1972.5,1226.67 1972.83,1367 1972.5,1507.5C 1967.17,1507.5 1961.83,1507.5 1956.5,1507.5C 1961.31,1506.51 1966.31,1506.18 1971.5,1506.5C 1971.5,1366.5 1971.5,1226.5 1971.5,1086.5 Z"/></g>
<g><path style="opacity:1" fill="#e4e4e4" d="M 2023.5,1086.5 C 2023.5,1150.17 2023.5,1213.83 2023.5,1277.5C 2032.17,1277.5 2040.83,1277.5 2049.5,1277.5C 2040.68,1278.49 2031.68,1278.83 2022.5,1278.5C 2022.17,1214.33 2022.5,1150.33 2023.5,1086.5 Z"/></g>
<g><path style="opacity:1" fill="#fdfdfd" d="M 2023.5,1086.5 C 2033.9,1086.1 2044.23,1086.6 2054.5,1088C 2062.24,1092.07 2067.4,1098.23 2070,1106.5C 2070.67,1156.83 2070.67,1207.17 2070,1257.5C 2067.21,1268.45 2060.38,1275.12 2049.5,1277.5C 2040.83,1277.5 2032.17,1277.5 2023.5,1277.5C 2023.5,1213.83 2023.5,1150.17 2023.5,1086.5 Z"/></g>
<g><path style="opacity:1" fill="#5c5c5c" d="M 2167.5,1086.5 C 2168.5,1226.67 2168.83,1367 2168.5,1507.5C 2163.17,1507.5 2157.83,1507.5 2152.5,1507.5C 2157.31,1506.51 2162.31,1506.18 2167.5,1506.5C 2167.5,1366.5 2167.5,1226.5 2167.5,1086.5 Z"/></g>
<g><path style="opacity:1" fill="#353334" d="M 376.5,1107.5 C 374.922,1115.23 372.589,1122.56 369.5,1129.5C 371.057,1121.83 373.391,1114.5 376.5,1107.5 Z"/></g>
<g><path style="opacity:1" fill="#3b393a" d="M 2575.5,1107.5 C 2577.87,1112.94 2579.87,1118.61 2581.5,1124.5C 2578.34,1119.37 2576.34,1113.7 2575.5,1107.5 Z"/></g>
<g><path style="opacity:1" fill="#fafafa" d="M 1104.5,1363.5 C 1104.5,1364.5 1104.5,1365.5 1104.5,1366.5C 1090.17,1366.5 1075.83,1366.5 1061.5,1366.5C 1061.5,1364.83 1061.5,1363.17 1061.5,1361.5C 1068.34,1283.77 1075.84,1206.11 1084,1128.5C 1091.63,1206.77 1098.46,1285.11 1104.5,1363.5 Z"/></g>
<g><path style="opacity:1" fill="#2b2a2a" d="M 192.5,1126.5 C 191.908,1132.62 190.742,1138.62 189,1144.5C 188.623,1145.94 187.79,1146.94 186.5,1147.5C 188.055,1140.27 190.055,1133.27 192.5,1126.5 Z"/></g>
<g><path style="opacity:1" fill="#919191" d="M 1307.5,1104.5 C 1308.5,1138.66 1308.83,1173 1308.5,1207.5C 1325.17,1207.5 1341.83,1207.5 1358.5,1207.5C 1341.67,1208.5 1324.67,1208.83 1307.5,1208.5C 1307.5,1173.83 1307.5,1139.17 1307.5,1104.5 Z"/></g>
<g><path style="opacity:1" fill="#949494" d="M 1781.5,1086.5 C 1782.5,1126.66 1782.83,1167 1782.5,1207.5C 1799.17,1207.5 1815.83,1207.5 1832.5,1207.5C 1815.67,1208.5 1798.67,1208.83 1781.5,1208.5C 1781.5,1167.83 1781.5,1127.17 1781.5,1086.5 Z"/></g>
<g><path style="opacity:1" fill="#3f3e3f" d="M 2784.5,1236.5 C 2789.24,1261.25 2793.24,1286.25 2796.5,1311.5C 2795.88,1311.39 2795.38,1311.06 2795,1310.5C 2791.64,1285.8 2788.14,1261.13 2784.5,1236.5 Z"/></g>
<g><path style="opacity:1" fill="#e0e0e0" d="M 748.5,1290.5 C 739.833,1290.5 731.167,1290.5 722.5,1290.5C 722.5,1362.5 722.5,1434.5 722.5,1506.5C 731.167,1506.5 739.833,1506.5 748.5,1506.5C 739.682,1507.49 730.682,1507.83 721.5,1507.5C 721.5,1434.83 721.5,1362.17 721.5,1289.5C 730.682,1289.17 739.682,1289.51 748.5,1290.5 Z"/></g>
<g><path style="opacity:1" fill="#fdfdfd" d="M 748.5,1290.5 C 759.416,1292.92 766.249,1299.58 769,1310.5C 769.667,1369.17 769.667,1427.83 769,1486.5C 766.25,1497.42 759.417,1504.08 748.5,1506.5C 739.833,1506.5 731.167,1506.5 722.5,1506.5C 722.5,1434.5 722.5,1362.5 722.5,1290.5C 731.167,1290.5 739.833,1290.5 748.5,1290.5 Z"/></g>
<g><path style="opacity:1" fill="#e3e3e3" d="M 1800.5,1289.5 C 1782.34,1290.5 1764.01,1290.83 1745.5,1290.5C 1745.5,1362.5 1745.5,1434.5 1745.5,1506.5C 1750.69,1506.18 1755.69,1506.51 1760.5,1507.5C 1755.17,1507.5 1749.83,1507.5 1744.5,1507.5C 1744.5,1434.83 1744.5,1362.17 1744.5,1289.5C 1763.17,1289.5 1781.83,1289.5 1800.5,1289.5 Z"/></g>
<g><path style="opacity:1" fill="#e3e3e3" d="M 2049.5,1290.5 C 2040.83,1290.5 2032.17,1290.5 2023.5,1290.5C 2023.5,1362.5 2023.5,1434.5 2023.5,1506.5C 2028.69,1506.18 2033.69,1506.51 2038.5,1507.5C 2033.17,1507.5 2027.83,1507.5 2022.5,1507.5C 2022.5,1434.83 2022.5,1362.17 2022.5,1289.5C 2031.68,1289.17 2040.68,1289.51 2049.5,1290.5 Z"/></g>
<g><path style="opacity:1" fill="#dedede" d="M 2278.5,1289.5 C 2259.01,1290.5 2239.34,1290.83 2219.5,1290.5C 2219.5,1362.5 2219.5,1434.5 2219.5,1506.5C 2232.83,1506.5 2246.17,1506.5 2259.5,1506.5C 2246.01,1507.5 2232.34,1507.83 2218.5,1507.5C 2218.5,1434.83 2218.5,1362.17 2218.5,1289.5C 2238.5,1289.5 2258.5,1289.5 2278.5,1289.5 Z"/></g>
<g><path style="opacity:1" fill="#484647" d="M 158.5,1293.5 C 158.404,1299.2 157.904,1304.86 157,1310.5C 156.617,1311.06 156.117,1311.39 155.5,1311.5C 156.021,1305.29 157.021,1299.29 158.5,1293.5 Z"/></g>
<g><path style="opacity:1" fill="#3c3a3b" d="M 2621.5,1297.5 C 2624.04,1310.29 2626.04,1323.29 2627.5,1336.5C 2626.73,1335.74 2626.23,1334.74 2626,1333.5C 2624.26,1321.52 2622.76,1309.52 2621.5,1297.5 Z"/></g>
<g><path style="opacity:1" fill="#3a3839" d="M 328.5,1310.5 C 328.33,1315.86 327.83,1321.19 327,1326.5C 326.722,1327.42 326.222,1328.08 325.5,1328.5C 326.143,1322.31 327.143,1316.31 328.5,1310.5 Z"/></g>
<g><path style="opacity:1" fill="#434142" d="M 2627.5,1340.5 C 2628.52,1344.98 2629.19,1349.65 2629.5,1354.5C 2628.73,1353.74 2628.23,1352.74 2628,1351.5C 2627.5,1347.85 2627.33,1344.18 2627.5,1340.5 Z"/></g>
<g><path style="opacity:1" fill="#413f40" d="M 153.5,1336.5 C 153.811,1341.77 153.145,1346.77 151.5,1351.5C 151.444,1346.27 152.111,1341.27 153.5,1336.5 Z"/></g>
<g><path style="opacity:1" fill="#2d2c2c" d="M 325.5,1332.5 C 325.177,1345.75 323.844,1358.75 321.5,1371.5C 322.107,1358.29 323.441,1345.29 325.5,1332.5 Z"/></g>
<g><path style="opacity:1" fill="#7a7a7a" d="M 1061.5,1361.5 C 1061.5,1363.17 1061.5,1364.83 1061.5,1366.5C 1075.83,1366.5 1090.17,1366.5 1104.5,1366.5C 1104.5,1365.5 1104.5,1364.5 1104.5,1363.5C 1105.43,1364.57 1105.77,1365.9 1105.5,1367.5C 1090.5,1367.5 1075.5,1367.5 1060.5,1367.5C 1060.21,1365.26 1060.54,1363.26 1061.5,1361.5 Z"/></g>
<g><path style="opacity:1" fill="#7f7f7f" d="M 952.5,1385.5 C 952.5,1426.17 952.5,1466.83 952.5,1507.5C 939.656,1507.83 926.989,1507.5 914.5,1506.5C 926.833,1506.5 939.167,1506.5 951.5,1506.5C 951.168,1466 951.501,1425.66 952.5,1385.5 Z"/></g>
<g><path style="opacity:1" fill="#484647" d="M 2633.5,1410.5 C 2634.61,1423.66 2635.27,1436.99 2635.5,1450.5C 2633.83,1437.37 2633.16,1424.04 2633.5,1410.5 Z"/></g>
<g><path style="opacity:1" fill="#252324" d="M 149.5,1380.5 C 147.82,1429.82 147.153,1479.15 147.5,1528.5C 144.644,1479.13 145.31,1429.79 149.5,1380.5 Z"/></g>
<g><path style="opacity:1" fill="#313030" d="M 2802.5,1380.5 C 2805.16,1412.29 2806.49,1444.29 2806.5,1476.5C 2806.7,1493.69 2806.03,1510.69 2804.5,1527.5C 2804.83,1478.48 2804.17,1429.48 2802.5,1380.5 Z"/></g>
<g><path style="opacity:1" fill="#898989" d="M 1116.5,1501.5 C 1117.46,1503.26 1117.79,1505.26 1117.5,1507.5C 1112.17,1507.5 1106.83,1507.5 1101.5,1507.5C 1106.31,1506.51 1111.31,1506.18 1116.5,1506.5C 1116.5,1504.83 1116.5,1503.17 1116.5,1501.5 Z"/></g>
<g><path style="opacity:1" fill="#323031" d="M 294.5,1528.5 C 296.152,1543.64 297.152,1558.97 297.5,1574.5C 295.679,1559.37 294.679,1544.04 294.5,1528.5 Z"/></g>
<g><path style="opacity:1" fill="#312f30" d="M 2657.5,1529.5 C 2657.28,1544.7 2656.28,1559.7 2654.5,1574.5C 2654.8,1559.3 2655.8,1544.3 2657.5,1529.5 Z"/></g>
<g><path style="opacity:1" fill="#7a7879" d="M 2300.5,1555.5 C 2300.17,1555.5 2299.83,1555.5 2299.5,1555.5C 1749.5,1555.5 1199.5,1555.5 649.5,1555.5C 649.5,1567.17 649.5,1578.83 649.5,1590.5C 649.5,1590.83 649.5,1591.17 649.5,1591.5C 648.505,1579.34 648.171,1567.01 648.5,1554.5C 1199.33,1554.17 1750,1554.5 2300.5,1555.5 Z"/></g>
<g><path style="opacity:1" fill="#131112" d="M 2299.5,1555.5 C 2299.5,1555.83 2299.5,1556.17 2299.5,1556.5C 1749.83,1556.5 1200.17,1556.5 650.5,1556.5C 650.5,1567.83 650.5,1579.17 650.5,1590.5C 650.167,1590.5 649.833,1590.5 649.5,1590.5C 649.5,1578.83 649.5,1567.17 649.5,1555.5C 1199.5,1555.5 1749.5,1555.5 2299.5,1555.5 Z"/></g>
<g><path style="opacity:1" fill="#000000" d="M 2299.5,1556.5 C 2299.5,1567.83 2299.5,1579.17 2299.5,1590.5C 1749.83,1590.5 1200.17,1590.5 650.5,1590.5C 650.5,1579.17 650.5,1567.83 650.5,1556.5C 1200.17,1556.5 1749.83,1556.5 2299.5,1556.5 Z"/></g>
<g><path style="opacity:1" fill="#302e2f" d="M 2299.5,1555.5 C 2299.83,1555.5 2300.17,1555.5 2300.5,1555.5C 2300.5,1567.5 2300.5,1579.5 2300.5,1591.5C 1750.17,1591.5 1199.83,1591.5 649.5,1591.5C 649.5,1591.17 649.5,1590.83 649.5,1590.5C 649.833,1590.5 650.167,1590.5 650.5,1590.5C 1200.17,1590.5 1749.83,1590.5 2299.5,1590.5C 2299.5,1579.17 2299.5,1567.83 2299.5,1556.5C 2299.5,1556.17 2299.5,1555.83 2299.5,1555.5 Z"/></g>
<g><path style="opacity:1" fill="#3d3c3c" d="M 298.5,1582.5 C 299.752,1591 300.752,1599.66 301.5,1608.5C 300.113,1606.12 299.279,1603.46 299,1600.5C 298.501,1594.51 298.334,1588.51 298.5,1582.5 Z"/></g>
<g><path style="opacity:1" fill="#3e3c3d" d="M 2653.5,1582.5 C 2653.67,1588.51 2653.5,1594.51 2653,1600.5C 2652.84,1603.19 2652.01,1605.52 2650.5,1607.5C 2651.31,1599.01 2652.31,1590.67 2653.5,1582.5 Z"/></g>
<g><path style="opacity:1" fill="#2e2d2d" d="M 2650.5,1612.5 C 2650.53,1627.26 2648.53,1641.6 2644.5,1655.5C 2646.39,1641.01 2648.39,1626.68 2650.5,1612.5 Z"/></g>
<g><path style="opacity:1" fill="#403e3f" d="M 304.5,1635.5 C 305.928,1641.97 306.928,1648.64 307.5,1655.5C 305.213,1649.17 304.213,1642.5 304.5,1635.5 Z"/></g>
<g><path style="opacity:1" fill="#030303" d="M 1503.5,1655.5 C 1537.84,1654.04 1561.67,1669.04 1575,1700.5C 1583.28,1731.67 1574.78,1757.17 1549.5,1777C 1541.02,1782.33 1531.85,1785.83 1522,1787.5C 1521.5,1794.16 1521.33,1800.83 1521.5,1807.5C 1528.56,1807.8 1535.56,1807.46 1542.5,1806.5C 1543.48,1806.98 1544.31,1807.64 1545,1808.5C 1545.81,1814.08 1545.64,1819.58 1544.5,1825C 1536.84,1825.5 1529.17,1825.67 1521.5,1825.5C 1521.67,1833.17 1521.5,1840.84 1521,1848.5C 1515,1849.83 1509,1849.83 1503,1848.5C 1502.5,1841.17 1502.33,1833.84 1502.5,1826.5C 1495.16,1826.67 1487.83,1826.5 1480.5,1826C 1479.52,1819.92 1479.19,1813.76 1479.5,1807.5C 1487.17,1807.5 1494.83,1807.5 1502.5,1807.5C 1502.5,1800.83 1502.5,1794.17 1502.5,1787.5C 1466.47,1779.8 1447.8,1757.46 1446.5,1720.5C 1449.51,1684.82 1468.51,1663.16 1503.5,1655.5 Z"/></g>
<g><path style="opacity:1" fill="#030303" d="M 690.5,1663.5 C 709.06,1660.05 722.226,1666.71 730,1683.5C 730.5,1695.83 730.667,1708.16 730.5,1720.5C 723.5,1720.5 716.5,1720.5 709.5,1720.5C 709.667,1704.83 709.5,1689.16 709,1673.5C 706.367,1668.27 702.201,1666.44 696.5,1668C 694,1669.17 692.167,1671 691,1673.5C 690.333,1687.17 690.333,1700.83 691,1714.5C 691.446,1719.73 692.779,1724.73 695,1729.5C 707.351,1747.53 718.685,1766.2 729,1785.5C 730.6,1800.45 730.934,1815.45 730,1830.5C 726.43,1841.07 719.263,1847.9 708.5,1851C 689.831,1854.75 676.997,1847.92 670,1830.5C 669.5,1818.5 669.333,1806.5 669.5,1794.5C 676.5,1794.5 683.5,1794.5 690.5,1794.5C 690.333,1809.5 690.5,1824.5 691,1839.5C 691.699,1844.87 694.699,1847.21 700,1846.5C 705.337,1847.16 708.337,1844.83 709,1839.5C 709.667,1824.83 709.667,1810.17 709,1795.5C 707.837,1790.17 705.837,1785.17 703,1780.5C 693.084,1765.67 683.417,1750.67 674,1735.5C 670.109,1724.69 668.609,1713.53 669.5,1702C 666.106,1683.28 673.106,1670.45 690.5,1663.5 Z"/></g>
<g><path style="opacity:1" fill="#030303" d="M 1796.5,1663.5 C 1815.06,1660.05 1828.23,1666.71 1836,1683.5C 1836.5,1695.83 1836.67,1708.16 1836.5,1720.5C 1829.5,1720.5 1822.5,1720.5 1815.5,1720.5C 1815.67,1704.83 1815.5,1689.16 1815,1673.5C 1812.37,1668.27 1808.2,1666.44 1802.5,1668C 1800,1669.17 1798.17,1671 1797,1673.5C 1796.33,1687.5 1796.33,1701.5 1797,1715.5C 1797.74,1720.32 1799.08,1724.99 1801,1729.5C 1813.35,1747.53 1824.68,1766.2 1835,1785.5C 1836.6,1800.45 1836.93,1815.45 1836,1830.5C 1832.43,1841.07 1825.26,1847.9 1814.5,1851C 1795.83,1854.75 1783,1847.92 1776,1830.5C 1775.5,1818.5 1775.33,1806.5 1775.5,1794.5C 1782.5,1794.5 1789.5,1794.5 1796.5,1794.5C 1796.33,1809.5 1796.5,1824.5 1797,1839.5C 1797.7,1844.87 1800.7,1847.21 1806,1846.5C 1811.34,1847.16 1814.34,1844.83 1815,1839.5C 1815.67,1824.83 1815.67,1810.17 1815,1795.5C 1813.84,1790.17 1811.84,1785.17 1809,1780.5C 1799.08,1765.67 1789.42,1750.67 1780,1735.5C 1776.11,1724.69 1774.61,1713.53 1775.5,1702C 1772.11,1683.28 1779.11,1670.45 1796.5,1663.5 Z"/></g>
<g><path style="opacity:1" fill="#020202" d="M 2096.5,1663.5 C 2110.07,1661.18 2121.9,1664.51 2132,1673.5C 2134.43,1676.93 2136.43,1680.6 2138,1684.5C 2138.67,1732.5 2138.67,1780.5 2138,1828.5C 2134.44,1840.4 2126.6,1847.9 2114.5,1851C 2101.58,1853.69 2090.41,1850.52 2081,1841.5C 2077.95,1838.06 2075.95,1834.06 2075,1829.5C 2074.33,1781.17 2074.33,1732.83 2075,1684.5C 2078.75,1673.92 2085.92,1666.92 2096.5,1663.5 Z"/></g>
<g><path style="opacity:1" fill="#010101" d="M 881.5,1664.5 C 881.5,1682.83 881.5,1701.17 881.5,1719.5C 874.833,1719.5 868.167,1719.5 861.5,1719.5C 861.83,1702.66 861.497,1685.99 860.5,1669.5C 854.833,1669.5 849.167,1669.5 843.5,1669.5C 843.5,1696.17 843.5,1722.83 843.5,1749.5C 851.833,1749.5 860.167,1749.5 868.5,1749.5C 868.5,1751.17 868.5,1752.83 868.5,1754.5C 860.167,1754.5 851.833,1754.5 843.5,1754.5C 843.5,1784.83 843.5,1815.17 843.5,1845.5C 849.167,1845.5 854.833,1845.5 860.5,1845.5C 861.497,1829.01 861.83,1812.34 861.5,1795.5C 868.167,1795.5 874.833,1795.5 881.5,1795.5C 881.5,1813.83 881.5,1832.17 881.5,1850.5C 859.5,1850.5 837.5,1850.5 815.5,1850.5C 815.5,1848.83 815.5,1847.17 815.5,1845.5C 817.5,1845.5 819.5,1845.5 821.5,1845.5C 822.499,1786.67 822.832,1727.67 822.5,1668.5C 820.167,1668.5 817.833,1668.5 815.5,1668.5C 815.5,1667.17 815.5,1665.83 815.5,1664.5C 837.5,1664.5 859.5,1664.5 881.5,1664.5 Z"/></g>
<g><path style="opacity:1" fill="#050505" d="M 965.5,1664.5 C 977.167,1664.5 988.833,1664.5 1000.5,1664.5C 1000.5,1665.83 1000.5,1667.17 1000.5,1668.5C 998.265,1668.21 996.265,1668.54 994.5,1669.5C 998.155,1689.12 1001.66,1708.79 1005,1728.5C 1009.49,1708.91 1013.65,1689.24 1017.5,1669.5C 1015.74,1668.54 1013.74,1668.21 1011.5,1668.5C 1011.5,1667.17 1011.5,1665.83 1011.5,1664.5C 1017.83,1664.5 1024.17,1664.5 1030.5,1664.5C 1030.5,1666.17 1030.5,1667.83 1030.5,1669.5C 1028.17,1669.5 1025.83,1669.5 1023.5,1669.5C 1017.98,1694.27 1012.65,1719.11 1007.5,1744C 1013.59,1777.78 1019.25,1811.61 1024.5,1845.5C 1026.83,1845.5 1029.17,1845.5 1031.5,1845.5C 1031.5,1847.17 1031.5,1848.83 1031.5,1850.5C 1019.5,1850.5 1007.5,1850.5 995.5,1850.5C 995.5,1848.83 995.5,1847.17 995.5,1845.5C 997.833,1845.5 1000.17,1845.5 1002.5,1845.5C 998.884,1823.14 995.051,1800.81 991,1778.5C 985.804,1800.65 981.304,1822.98 977.5,1845.5C 979.5,1845.5 981.5,1845.5 983.5,1845.5C 983.5,1847.17 983.5,1848.83 983.5,1850.5C 976.833,1850.5 970.167,1850.5 963.5,1850.5C 963.5,1848.83 963.5,1847.17 963.5,1845.5C 966.394,1845.96 968.894,1845.29 971,1843.5C 977.017,1816.08 982.517,1788.58 987.5,1761C 982.942,1730.23 977.609,1699.73 971.5,1669.5C 969.735,1668.54 967.735,1668.21 965.5,1668.5C 965.5,1667.17 965.5,1665.83 965.5,1664.5 Z"/></g>
<g><path style="opacity:1" fill="#020202" d="M 1930.5,1664.5 C 1930.5,1665.83 1930.5,1667.17 1930.5,1668.5C 1928.26,1668.21 1926.26,1668.54 1924.5,1669.5C 1924.5,1696.17 1924.5,1722.83 1924.5,1749.5C 1931.5,1749.5 1938.5,1749.5 1945.5,1749.5C 1945.5,1722.83 1945.5,1696.17 1945.5,1669.5C 1943.74,1668.54 1941.74,1668.21 1939.5,1668.5C 1939.5,1667.17 1939.5,1665.83 1939.5,1664.5C 1950.83,1664.5 1962.17,1664.5 1973.5,1664.5C 1973.5,1665.83 1973.5,1667.17 1973.5,1668.5C 1971.17,1668.5 1968.83,1668.5 1966.5,1668.5C 1966.17,1727.67 1966.5,1786.67 1967.5,1845.5C 1969.5,1845.5 1971.5,1845.5 1973.5,1845.5C 1973.5,1847.17 1973.5,1848.83 1973.5,1850.5C 1962.17,1850.5 1950.83,1850.5 1939.5,1850.5C 1939.5,1848.83 1939.5,1847.17 1939.5,1845.5C 1941.5,1845.5 1943.5,1845.5 1945.5,1845.5C 1945.5,1815.17 1945.5,1784.83 1945.5,1754.5C 1938.5,1754.5 1931.5,1754.5 1924.5,1754.5C 1924.5,1784.83 1924.5,1815.17 1924.5,1845.5C 1926.83,1845.5 1929.17,1845.5 1931.5,1845.5C 1931.5,1847.17 1931.5,1848.83 1931.5,1850.5C 1919.83,1850.5 1908.17,1850.5 1896.5,1850.5C 1896.5,1848.83 1896.5,1847.17 1896.5,1845.5C 1898.5,1845.5 1900.5,1845.5 1902.5,1845.5C 1903.5,1786.67 1903.83,1727.67 1903.5,1668.5C 1901.17,1668.5 1898.83,1668.5 1896.5,1668.5C 1896.5,1667.17 1896.5,1665.83 1896.5,1664.5C 1907.83,1664.5 1919.17,1664.5 1930.5,1664.5 Z"/></g>
<g><path style="opacity:1" fill="#020202" d="M 2244.5,1845.5 C 2245.5,1786.67 2245.83,1727.67 2245.5,1668.5C 2243.17,1668.5 2240.83,1668.5 2238.5,1668.5C 2238.5,1667.17 2238.5,1665.83 2238.5,1664.5C 2254.55,1664.08 2270.55,1664.58 2286.5,1666C 2296.91,1668.78 2303.75,1675.28 2307,1685.5C 2307.97,1707.9 2307.63,1730.23 2306,1752.5C 2301.6,1762.29 2294.1,1768.12 2283.5,1770C 2277.84,1770.5 2272.18,1770.67 2266.5,1770.5C 2266.5,1795.5 2266.5,1820.5 2266.5,1845.5C 2268.83,1845.5 2271.17,1845.5 2273.5,1845.5C 2273.5,1847.17 2273.5,1848.83 2273.5,1850.5C 2261.83,1850.5 2250.17,1850.5 2238.5,1850.5C 2238.5,1848.83 2238.5,1847.17 2238.5,1845.5C 2240.5,1845.5 2242.5,1845.5 2244.5,1845.5 Z"/></g>
<g><path style="opacity:1" fill="#040404" d="M 1333.5,1667.5 C 1334.87,1667.34 1336.21,1667.51 1337.5,1668C 1342.35,1681.89 1346.35,1696.05 1349.5,1710.5C 1349.43,1711.77 1349.1,1712.94 1348.5,1714C 1342.92,1715.69 1337.26,1716.86 1331.5,1717.5C 1330.65,1712.77 1329.48,1708.1 1328,1703.5C 1322.92,1711.33 1318.08,1719.33 1313.5,1727.5C 1340.12,1751.92 1345.62,1780.59 1330,1813.5C 1314.05,1837.56 1291.55,1848.39 1262.5,1846C 1222.25,1835.37 1203.75,1809.2 1207,1767.5C 1217.32,1730.84 1241.48,1713.01 1279.5,1714C 1285.39,1714.72 1291.06,1716.22 1296.5,1718.5C 1301.63,1710.42 1306.63,1702.25 1311.5,1694C 1307.12,1694.28 1302.79,1695.12 1298.5,1696.5C 1297.5,1696.17 1296.5,1695.83 1295.5,1695.5C 1293.68,1690.24 1292.52,1684.91 1292,1679.5C 1305.8,1675.09 1319.64,1671.09 1333.5,1667.5 Z"/></g>
<g><path style="opacity:1" fill="#6b6b6b" d="M 965.5,1664.5 C 965.5,1665.83 965.5,1667.17 965.5,1668.5C 967.735,1668.21 969.735,1668.54 971.5,1669.5C 969.167,1669.5 966.833,1669.5 964.5,1669.5C 964.216,1667.59 964.549,1665.92 965.5,1664.5 Z"/></g>
<g><path style="opacity:1" fill="#6c6c6c" d="M 1000.5,1664.5 C 1001.45,1665.92 1001.78,1667.59 1001.5,1669.5C 999.167,1669.5 996.833,1669.5 994.5,1669.5C 996.265,1668.54 998.265,1668.21 1000.5,1668.5C 1000.5,1667.17 1000.5,1665.83 1000.5,1664.5 Z"/></g>
<g><path style="opacity:1" fill="#6c6c6c" d="M 1011.5,1664.5 C 1011.5,1665.83 1011.5,1667.17 1011.5,1668.5C 1013.74,1668.21 1015.74,1668.54 1017.5,1669.5C 1015.17,1669.5 1012.83,1669.5 1010.5,1669.5C 1010.22,1667.59 1010.55,1665.92 1011.5,1664.5 Z"/></g>
<g><path style="opacity:1" fill="#6c6c6c" d="M 1930.5,1664.5 C 1931.45,1665.92 1931.78,1667.59 1931.5,1669.5C 1929.17,1669.5 1926.83,1669.5 1924.5,1669.5C 1926.26,1668.54 1928.26,1668.21 1930.5,1668.5C 1930.5,1667.17 1930.5,1665.83 1930.5,1664.5 Z"/></g>
<g><path style="opacity:1" fill="#747474" d="M 1939.5,1664.5 C 1939.5,1665.83 1939.5,1667.17 1939.5,1668.5C 1941.74,1668.21 1943.74,1668.54 1945.5,1669.5C 1943.17,1669.5 1940.83,1669.5 1938.5,1669.5C 1938.22,1667.59 1938.55,1665.92 1939.5,1664.5 Z"/></g>
<g><path style="opacity:1" fill="#f6f6f6" d="M 2103.5,1667.5 C 2109.84,1667 2114.34,1669.67 2117,1675.5C 2117.67,1729.83 2117.67,1784.17 2117,1838.5C 2110.49,1849.94 2103.49,1850.27 2096,1839.5C 2095.33,1784.83 2095.33,1730.17 2096,1675.5C 2097.35,1671.65 2099.85,1668.98 2103.5,1667.5 Z"/></g>
<g><path style="opacity:1" fill="#9c9c9c" d="M 815.5,1668.5 C 817.833,1668.5 820.167,1668.5 822.5,1668.5C 822.832,1727.67 822.499,1786.67 821.5,1845.5C 821.5,1786.83 821.5,1728.17 821.5,1669.5C 819.265,1669.79 817.265,1669.46 815.5,1668.5 Z"/></g>
<g><path style="opacity:1" fill="#4f4f4f" d="M 881.5,1664.5 C 882.497,1682.99 882.83,1701.66 882.5,1720.5C 875.167,1720.5 867.833,1720.5 860.5,1720.5C 860.5,1703.5 860.5,1686.5 860.5,1669.5C 861.497,1685.99 861.83,1702.66 861.5,1719.5C 868.167,1719.5 874.833,1719.5 881.5,1719.5C 881.5,1701.17 881.5,1682.83 881.5,1664.5 Z"/></g>
<g><path style="opacity:1" fill="#9c9c9c" d="M 1896.5,1668.5 C 1898.83,1668.5 1901.17,1668.5 1903.5,1668.5C 1903.83,1727.67 1903.5,1786.67 1902.5,1845.5C 1902.5,1786.83 1902.5,1728.17 1902.5,1669.5C 1900.26,1669.79 1898.26,1669.46 1896.5,1668.5 Z"/></g>
<g><path style="opacity:1" fill="#858585" d="M 1973.5,1668.5 C 1971.74,1669.46 1969.74,1669.79 1967.5,1669.5C 1967.5,1728.17 1967.5,1786.83 1967.5,1845.5C 1966.5,1786.67 1966.17,1727.67 1966.5,1668.5C 1968.83,1668.5 1971.17,1668.5 1973.5,1668.5 Z"/></g>
<g><path style="opacity:1" fill="#9c9c9c" d="M 2238.5,1668.5 C 2240.83,1668.5 2243.17,1668.5 2245.5,1668.5C 2245.83,1727.67 2245.5,1786.67 2244.5,1845.5C 2244.5,1786.83 2244.5,1728.17 2244.5,1669.5C 2242.26,1669.79 2240.26,1669.46 2238.5,1668.5 Z"/></g>
<g><path style="opacity:1" fill="#fcfcfc" d="M 2266.5,1669.5 C 2270.85,1669.33 2275.18,1669.5 2279.5,1670C 2282.33,1671.5 2284.5,1673.67 2286,1676.5C 2286.67,1703.83 2286.67,1731.17 2286,1758.5C 2284.83,1762.33 2282.33,1764.83 2278.5,1766C 2274.51,1766.5 2270.51,1766.67 2266.5,1766.5C 2266.5,1734.17 2266.5,1701.83 2266.5,1669.5 Z"/></g>
<g><path style="opacity:1" fill="#fdfdfd" d="M 1505.5,1674.5 C 1534.01,1673.66 1551.85,1687 1559,1714.5C 1560.68,1743.98 1547.18,1762.15 1518.5,1769C 1491.61,1770.31 1474.11,1758.14 1466,1732.5C 1462.83,1701.86 1476,1682.53 1505.5,1674.5 Z"/></g>
<g><path style="opacity:1" fill="#fdfdfd" d="M 1265.5,1732.5 C 1293.21,1731.39 1311.04,1744.06 1319,1770.5C 1321.63,1788.96 1316.13,1804.46 1302.5,1817C 1276.19,1833.92 1253.03,1830.42 1233,1806.5C 1219.09,1780.48 1223.59,1758.31 1246.5,1740C 1252.6,1736.58 1258.94,1734.08 1265.5,1732.5 Z"/></g>
<g><path style="opacity:1" fill="#2e2c2d" d="M 2627.5,1746.5 C 2626.87,1752.62 2625.7,1758.62 2624,1764.5C 2623.27,1767.19 2622.1,1769.52 2620.5,1771.5C 2622.52,1762.99 2624.85,1754.66 2627.5,1746.5 Z"/></g>
<g><path style="opacity:1" fill="#2f2d2e" d="M 330.5,1769.5 C 332.949,1777.71 335.282,1786.04 337.5,1794.5C 336.883,1794.39 336.383,1794.06 336,1793.5C 333.265,1785.7 331.432,1777.7 330.5,1769.5 Z"/></g>
<g><path style="opacity:1" fill="#474747" d="M 881.5,1850.5 C 881.5,1832.17 881.5,1813.83 881.5,1795.5C 874.833,1795.5 868.167,1795.5 861.5,1795.5C 861.83,1812.34 861.497,1829.01 860.5,1845.5C 860.5,1828.5 860.5,1811.5 860.5,1794.5C 867.833,1794.5 875.167,1794.5 882.5,1794.5C 882.83,1813.34 882.497,1832.01 881.5,1850.5 Z"/></g>
<g><path style="opacity:1" fill="#3c3a3b" d="M 344.5,1820.5 C 346.538,1824.94 348.204,1829.61 349.5,1834.5C 346.676,1830.37 345.009,1825.7 344.5,1820.5 Z"/></g>
<g><path style="opacity:1" fill="#2d2b2c" d="M 2603.5,1833.5 C 2601.19,1842.94 2598.35,1852.27 2595,1861.5C 2594.62,1862.06 2594.12,1862.39 2593.5,1862.5C 2596.46,1852.61 2599.8,1842.94 2603.5,1833.5 Z"/></g>
<g><path style="opacity:1" fill="#302e2f" d="M 349.5,1836.5 C 352.871,1844.94 355.871,1853.61 358.5,1862.5C 354.341,1854.36 351.341,1845.7 349.5,1836.5 Z"/></g>
<g><path style="opacity:1" fill="#282627" d="M 547.5,1867.5 C 579.1,1873.96 606.433,1888.3 629.5,1910.5C 628.448,1910.65 627.448,1910.48 626.5,1910C 603.862,1889.01 577.528,1874.85 547.5,1867.5 Z"/></g>
<g><path style="opacity:1" fill="#2a2829" d="M 633.5,1914.5 C 643.371,1924.7 651.704,1936.04 658.5,1948.5C 651.34,1937.49 643.173,1927.16 634,1917.5C 633.517,1916.55 633.351,1915.55 633.5,1914.5 Z"/></g>
<g><path style="opacity:1" fill="#222021" d="M 2391.5,1872.5 C 2344.73,1891.44 2311.23,1924.11 2291,1970.5C 2284.29,1988.57 2280.45,2007.23 2279.5,2026.5C 1746.17,2026.5 1212.83,2026.5 679.5,2026.5C 678.54,2017.52 677.873,2008.52 677.5,1999.5C 679.913,2007.86 680.913,2016.53 680.5,2025.5C 1213.17,2025.5 1745.83,2025.5 2278.5,2025.5C 2278.59,2017.1 2279.43,2008.76 2281,2000.5C 2294.79,1937.9 2331.62,1895.24 2391.5,1872.5 Z"/></g>
<g><path style="opacity:1" fill="#333233" d="M 280.5,2058.5 C 284.675,2065.52 288.341,2072.85 291.5,2080.5C 286.793,2073.75 283.126,2066.42 280.5,2058.5 Z"/></g>
<g><path style="opacity:1" fill="#551417" d="M 1486.5,2162.5 C 1485.19,2159.59 1483.85,2156.59 1482.5,2153.5C 1481.27,2154.34 1480.27,2155.34 1479.5,2156.5C 1479.36,2153.48 1480.7,2151.98 1483.5,2152C 1485.21,2155.29 1486.21,2158.79 1486.5,2162.5 Z"/></g>
<g><path style="opacity:1" fill="#5b1316" d="M 1479.5,2156.5 C 1478.31,2162.58 1476.81,2168.58 1475,2174.5C 1469.06,2190.64 1463.73,2206.97 1459,2223.5C 1458.62,2224.06 1458.12,2224.39 1457.5,2224.5C 1464.27,2201.53 1471.6,2178.86 1479.5,2156.5 Z"/></g>
<g><path style="opacity:1" fill="#eb1b24" d="M 1486.5,2162.5 C 1486.5,2163.83 1486.5,2165.17 1486.5,2166.5C 1486.34,2168.86 1486.5,2171.19 1487,2173.5C 1490.48,2181.45 1493.65,2189.45 1496.5,2197.5C 1497.91,2201.32 1499.58,2204.98 1501.5,2208.5C 1502.43,2215.25 1504.43,2221.58 1507.5,2227.5C 1507.53,2230.92 1508.53,2233.92 1510.5,2236.5C 1510.5,2237.83 1510.5,2239.17 1510.5,2240.5C 1510.79,2244.21 1511.79,2247.71 1513.5,2251C 1547.17,2251.17 1580.84,2251.67 1614.5,2252.5C 1612.61,2253.95 1610.94,2255.61 1609.5,2257.5C 1605.98,2258.35 1603.31,2260.35 1601.5,2263.5C 1599.97,2263.43 1598.97,2264.09 1598.5,2265.5C 1596.15,2266.34 1594.15,2267.67 1592.5,2269.5C 1586.27,2272.32 1580.94,2276.32 1576.5,2281.5C 1574.15,2282.34 1572.15,2283.67 1570.5,2285.5C 1567.54,2285.98 1565.21,2287.48 1563.5,2290C 1561.87,2290.49 1560.2,2290.66 1558.5,2290.5C 1558.65,2291.55 1558.48,2292.55 1558,2293.5C 1556.01,2294.33 1554.51,2295.66 1553.5,2297.5C 1549.09,2301.26 1544.42,2304.59 1539.5,2307.5C 1539.17,2308.5 1538.5,2309.17 1537.5,2309.5C 1535.69,2309.57 1534.36,2310.41 1533.5,2312C 1534.2,2315.13 1534.7,2318.29 1535,2321.5C 1536.42,2323.99 1537.92,2326.33 1539.5,2328.5C 1541.66,2334.98 1543.99,2341.31 1546.5,2347.5C 1547.45,2348.92 1547.78,2350.59 1547.5,2352.5C 1548.42,2357.22 1550.08,2361.55 1552.5,2365.5C 1555.97,2377.9 1559.63,2390.23 1563.5,2402.5C 1563.5,2403.83 1563.5,2405.17 1563.5,2406.5C 1562.17,2406.5 1560.83,2406.5 1559.5,2406.5C 1555.36,2401.6 1550.36,2397.94 1544.5,2395.5C 1544.03,2394.09 1543.03,2393.43 1541.5,2393.5C 1540.24,2389.56 1537.57,2387.56 1533.5,2387.5C 1532.17,2386.17 1530.83,2384.83 1529.5,2383.5C 1527.43,2381.8 1525.1,2380.47 1522.5,2379.5C 1521.74,2377.74 1520.4,2376.74 1518.5,2376.5C 1517.54,2372.89 1515.2,2371.23 1511.5,2371.5C 1502.6,2364.04 1493.27,2357.04 1483.5,2350.5C 1480.8,2349.43 1478.8,2350.43 1477.5,2353.5C 1476.71,2355.1 1475.38,2355.77 1473.5,2355.5C 1471.25,2356.08 1469.58,2357.41 1468.5,2359.5C 1464.98,2361.99 1461.64,2364.66 1458.5,2367.5C 1457,2368.75 1455.33,2369.75 1453.5,2370.5C 1449.81,2372.34 1446.48,2374.68 1443.5,2377.5C 1443.17,2378.5 1442.5,2379.17 1441.5,2379.5C 1437.98,2380.35 1435.31,2382.35 1433.5,2385.5C 1430.8,2385.84 1428.8,2387.18 1427.5,2389.5C 1423.27,2391.4 1419.6,2394.07 1416.5,2397.5C 1414.25,2398.08 1412.58,2399.41 1411.5,2401.5C 1408.73,2402.72 1406.06,2404.22 1403.5,2406C 1402.18,2406.82 1401.51,2407.98 1401.5,2409.5C 1400.5,2409.5 1399.5,2409.5 1398.5,2409.5C 1401.65,2399.89 1404.65,2390.23 1407.5,2380.5C 1407.5,2380.17 1407.5,2379.83 1407.5,2379.5C 1409.95,2375.24 1411.28,2370.57 1411.5,2365.5C 1412.12,2365.39 1412.62,2365.06 1413,2364.5C 1418.45,2348.96 1423.28,2333.3 1427.5,2317.5C 1430.14,2314.45 1430.14,2311.28 1427.5,2308C 1426.21,2307.51 1424.87,2307.34 1423.5,2307.5C 1422.17,2306.17 1420.83,2304.83 1419.5,2303.5C 1417.62,2300.89 1415.29,2298.72 1412.5,2297C 1411.21,2296.51 1409.87,2296.34 1408.5,2296.5C 1408.03,2295.09 1407.03,2294.43 1405.5,2294.5C 1404.2,2292.06 1402.53,2289.9 1400.5,2288C 1401.67,2285.32 1400.84,2284.82 1398,2286.5C 1396.59,2285.59 1395.09,2284.92 1393.5,2284.5C 1390.17,2282.5 1386.83,2280.5 1383.5,2278.5C 1379.8,2273.66 1375.13,2270.33 1369.5,2268.5C 1368.74,2266.74 1367.4,2265.74 1365.5,2265.5C 1364.05,2262.22 1361.72,2259.72 1358.5,2258C 1359.45,2257.28 1359.62,2256.45 1359,2255.5C 1357.61,2256.55 1356.11,2256.72 1354.5,2256C 1353.02,2254.43 1351.35,2253.09 1349.5,2252C 1383.17,2251.67 1416.83,2251.33 1450.5,2251C 1451.34,2249.99 1451.67,2248.82 1451.5,2247.5C 1452.83,2242.85 1454.16,2238.18 1455.5,2233.5C 1455.5,2232.83 1455.5,2232.17 1455.5,2231.5C 1456.12,2231.39 1456.62,2231.06 1457,2230.5C 1457.5,2228.53 1457.66,2226.53 1457.5,2224.5C 1458.12,2224.39 1458.62,2224.06 1459,2223.5C 1463.73,2206.97 1469.06,2190.64 1475,2174.5C 1476.81,2168.58 1478.31,2162.58 1479.5,2156.5C 1480.27,2155.34 1481.27,2154.34 1482.5,2153.5C 1483.85,2156.59 1485.19,2159.59 1486.5,2162.5 Z"/></g>
<g><path style="opacity:1" fill="#551115" d="M 1486.5,2162.5 C 1488.07,2164.1 1488.74,2166.1 1488.5,2168.5C 1487.83,2167.83 1487.17,2167.17 1486.5,2166.5C 1486.5,2165.17 1486.5,2163.83 1486.5,2162.5 Z"/></g>
<g><path style="opacity:1" fill="#571215" d="M 1488.5,2168.5 C 1491.94,2176.5 1494.61,2184.83 1496.5,2193.5C 1493.06,2185.5 1490.39,2177.17 1488.5,2168.5 Z"/></g>
<g><path style="opacity:1" fill="#ca272d" d="M 1486.5,2166.5 C 1487.17,2167.17 1487.83,2167.83 1488.5,2168.5C 1490.39,2177.17 1493.06,2185.5 1496.5,2193.5C 1496.5,2194.83 1496.5,2196.17 1496.5,2197.5C 1493.65,2189.45 1490.48,2181.45 1487,2173.5C 1486.5,2171.19 1486.34,2168.86 1486.5,2166.5 Z"/></g>
<g><path style="opacity:1" fill="#651518" d="M 1496.5,2193.5 C 1498.74,2198.22 1500.41,2203.22 1501.5,2208.5C 1499.58,2204.98 1497.91,2201.32 1496.5,2197.5C 1496.5,2196.17 1496.5,2194.83 1496.5,2193.5 Z"/></g>
<g><path style="opacity:1" fill="#591417" d="M 1501.5,2208.5 C 1504.28,2214.5 1506.28,2220.83 1507.5,2227.5C 1504.43,2221.58 1502.43,2215.25 1501.5,2208.5 Z"/></g>
<g><path style="opacity:1" fill="#65171a" d="M 1457.5,2224.5 C 1457.66,2226.53 1457.5,2228.53 1457,2230.5C 1456.62,2231.06 1456.12,2231.39 1455.5,2231.5C 1455.41,2228.85 1456.08,2226.51 1457.5,2224.5 Z"/></g>
<g><path style="opacity:1" fill="#5d1417" d="M 1507.5,2227.5 C 1509.07,2230.22 1510.07,2233.22 1510.5,2236.5C 1508.53,2233.92 1507.53,2230.92 1507.5,2227.5 Z"/></g>
<g><path style="opacity:1" fill="#631316" d="M 1455.5,2233.5 C 1454.16,2238.18 1452.83,2242.85 1451.5,2247.5C 1450.83,2248.17 1450.17,2248.83 1449.5,2249.5C 1450.55,2243.68 1452.55,2238.35 1455.5,2233.5 Z"/></g>
<g><path style="opacity:1" fill="#620c10" d="M 1449.5,2249.5 C 1415.17,2250.17 1380.83,2250.83 1346.5,2251.5C 1345.96,2251.44 1345.62,2251.11 1345.5,2250.5C 1380.16,2249.5 1414.83,2249.17 1449.5,2249.5 Z"/></g>
<g><path style="opacity:1" fill="#600d11" d="M 1510.5,2236.5 C 1512.24,2240.54 1513.91,2244.71 1515.5,2249C 1549.83,2249.5 1584.17,2249.67 1618.5,2249.5C 1618.91,2251.97 1617.91,2253.31 1615.5,2253.5C 1615.95,2252.54 1616.62,2251.71 1617.5,2251C 1583.17,2250.67 1548.83,2250.33 1514.5,2250C 1513.24,2246.71 1511.91,2243.54 1510.5,2240.5C 1510.5,2239.17 1510.5,2237.83 1510.5,2236.5 Z"/></g>
<g><path style="opacity:1" fill="#bb2b31" d="M 1451.5,2247.5 C 1451.67,2248.82 1451.34,2249.99 1450.5,2251C 1416.83,2251.33 1383.17,2251.67 1349.5,2252C 1351.35,2253.09 1353.02,2254.43 1354.5,2256C 1356.11,2256.72 1357.61,2256.55 1359,2255.5C 1359.62,2256.45 1359.45,2257.28 1358.5,2258C 1361.72,2259.72 1364.05,2262.22 1365.5,2265.5C 1358.87,2261.2 1352.54,2256.54 1346.5,2251.5C 1380.83,2250.83 1415.17,2250.17 1449.5,2249.5C 1450.17,2248.83 1450.83,2248.17 1451.5,2247.5 Z"/></g>
<g><path style="opacity:1" fill="#bc2d32" d="M 1510.5,2240.5 C 1511.91,2243.54 1513.24,2246.71 1514.5,2250C 1548.83,2250.33 1583.17,2250.67 1617.5,2251C 1616.62,2251.71 1615.95,2252.54 1615.5,2253.5C 1613.85,2255.33 1611.85,2256.66 1609.5,2257.5C 1610.94,2255.61 1612.61,2253.95 1614.5,2252.5C 1580.84,2251.67 1547.17,2251.17 1513.5,2251C 1511.79,2247.71 1510.79,2244.21 1510.5,2240.5 Z"/></g>
<g><path style="opacity:1" fill="#6e1519" d="M 1609.5,2257.5 C 1607.12,2259.88 1604.45,2261.88 1601.5,2263.5C 1603.31,2260.35 1605.98,2258.35 1609.5,2257.5 Z"/></g>
<g><path style="opacity:1" fill="#661418" d="M 1598.5,2265.5 C 1597.2,2267.82 1595.2,2269.16 1592.5,2269.5C 1594.15,2267.67 1596.15,2266.34 1598.5,2265.5 Z"/></g>
<g><path style="opacity:1" fill="#931e23" d="M 1369.5,2268.5 C 1375.13,2270.33 1379.8,2273.66 1383.5,2278.5C 1378.63,2275.34 1373.96,2272.01 1369.5,2268.5 Z"/></g>
<g><path style="opacity:1" fill="#7b191d" d="M 1592.5,2269.5 C 1588.02,2274.65 1582.69,2278.65 1576.5,2281.5C 1580.94,2276.32 1586.27,2272.32 1592.5,2269.5 Z"/></g>
<g><path style="opacity:1" fill="#5f1317" d="M 1576.5,2281.5 C 1575.2,2283.82 1573.2,2285.16 1570.5,2285.5C 1572.15,2283.67 1574.15,2282.34 1576.5,2281.5 Z"/></g>
<g><path style="opacity:1" fill="#bf2227" d="M 1393.5,2284.5 C 1395.09,2284.92 1396.59,2285.59 1398,2286.5C 1400.84,2284.82 1401.67,2285.32 1400.5,2288C 1402.53,2289.9 1404.2,2292.06 1405.5,2294.5C 1400.66,2292.14 1396.66,2288.81 1393.5,2284.5 Z"/></g>
<g><path style="opacity:1" fill="#a52024" d="M 1570.5,2285.5 C 1565.72,2290.73 1560.05,2294.73 1553.5,2297.5C 1554.51,2295.66 1556.01,2294.33 1558,2293.5C 1558.48,2292.55 1558.65,2291.55 1558.5,2290.5C 1560.2,2290.66 1561.87,2290.49 1563.5,2290C 1565.21,2287.48 1567.54,2285.98 1570.5,2285.5 Z"/></g>
<g><path style="opacity:1" fill="#9f2025" d="M 1408.5,2296.5 C 1409.87,2296.34 1411.21,2296.51 1412.5,2297C 1415.29,2298.72 1417.62,2300.89 1419.5,2303.5C 1415.05,2302.37 1411.38,2300.04 1408.5,2296.5 Z"/></g>
<g><path style="opacity:1" fill="#4d1314" d="M 1553.5,2297.5 C 1550.18,2302.84 1545.51,2306.17 1539.5,2307.5C 1544.42,2304.59 1549.09,2301.26 1553.5,2297.5 Z"/></g>
<g><path style="opacity:1" fill="#79191d" d="M 1423.5,2307.5 C 1424.87,2307.34 1426.21,2307.51 1427.5,2308C 1430.14,2311.28 1430.14,2314.45 1427.5,2317.5C 1428.01,2315.49 1428.18,2313.49 1428,2311.5C 1426.33,2310.27 1424.83,2308.93 1423.5,2307.5 Z"/></g>
<g><path style="opacity:1" fill="#c22329" d="M 1537.5,2309.5 C 1535.46,2311.7 1535.12,2314.03 1536.5,2316.5C 1537.09,2320.6 1538.09,2324.6 1539.5,2328.5C 1537.92,2326.33 1536.42,2323.99 1535,2321.5C 1534.7,2318.29 1534.2,2315.13 1533.5,2312C 1534.36,2310.41 1535.69,2309.57 1537.5,2309.5 Z"/></g>
<g><path style="opacity:1" fill="#531114" d="M 1536.5,2316.5 C 1540.61,2326.5 1543.94,2336.83 1546.5,2347.5C 1543.99,2341.31 1541.66,2334.98 1539.5,2328.5C 1538.09,2324.6 1537.09,2320.6 1536.5,2316.5 Z"/></g>
<g><path style="opacity:1" fill="#211f20" d="M 2329.5,2294.5 C 2317.42,2308.08 2304.76,2321.25 2291.5,2334C 2287.94,2337.07 2284.27,2339.91 2280.5,2342.5C 2296.81,2326.53 2313.14,2310.53 2329.5,2294.5 Z"/></g>
<g><path style="opacity:1" fill="#5e1416" d="M 1427.5,2317.5 C 1423.28,2333.3 1418.45,2348.96 1413,2364.5C 1412.62,2365.06 1412.12,2365.39 1411.5,2365.5C 1416.27,2349.2 1421.6,2333.2 1427.5,2317.5 Z"/></g>
<g><path style="opacity:1" fill="#551114" d="M 1483.5,2350.5 C 1481.5,2351.5 1479.5,2352.5 1477.5,2353.5C 1478.8,2350.43 1480.8,2349.43 1483.5,2350.5 Z"/></g>
<g><path style="opacity:1" fill="#5d1417" d="M 1547.5,2352.5 C 1550.12,2356.34 1551.79,2360.68 1552.5,2365.5C 1550.08,2361.55 1548.42,2357.22 1547.5,2352.5 Z"/></g>
<g><path style="opacity:1" fill="#76171b" d="M 1473.5,2355.5 C 1472.67,2357.26 1471.34,2358.6 1469.5,2359.5C 1469.17,2359.5 1468.83,2359.5 1468.5,2359.5C 1469.58,2357.41 1471.25,2356.08 1473.5,2355.5 Z"/></g>
<g><path style="opacity:1" fill="#3c1011" d="M 1468.5,2359.5 C 1468.83,2359.5 1469.17,2359.5 1469.5,2359.5C 1466.6,2363.24 1462.94,2365.91 1458.5,2367.5C 1461.64,2364.66 1464.98,2361.99 1468.5,2359.5 Z"/></g>
<g><path style="opacity:1" fill="#6d1619" d="M 1453.5,2370.5 C 1450.87,2373.82 1447.54,2376.15 1443.5,2377.5C 1446.48,2374.68 1449.81,2372.34 1453.5,2370.5 Z"/></g>
<g><path style="opacity:1" fill="#981e23" d="M 1511.5,2371.5 C 1515.2,2371.23 1517.54,2372.89 1518.5,2376.5C 1515.88,2375.21 1513.55,2373.55 1511.5,2371.5 Z"/></g>
<g><path style="opacity:1" fill="#561215" d="M 1552.5,2365.5 C 1557.28,2377.5 1561.28,2389.83 1564.5,2402.5C 1564.17,2402.5 1563.83,2402.5 1563.5,2402.5C 1559.63,2390.23 1555.97,2377.9 1552.5,2365.5 Z"/></g>
<g><path style="opacity:1" fill="#641619" d="M 1411.5,2365.5 C 1411.28,2370.57 1409.95,2375.24 1407.5,2379.5C 1407.92,2374.46 1409.26,2369.79 1411.5,2365.5 Z"/></g>
<g><path style="opacity:1" fill="#912025" d="M 1522.5,2379.5 C 1525.1,2380.47 1527.43,2381.8 1529.5,2383.5C 1526.45,2383.28 1524.12,2381.94 1522.5,2379.5 Z"/></g>
<g><path style="opacity:1" fill="#6c161a" d="M 1441.5,2379.5 C 1439.12,2381.88 1436.45,2383.88 1433.5,2385.5C 1435.31,2382.35 1437.98,2380.35 1441.5,2379.5 Z"/></g>
<g><path style="opacity:1" fill="#931d22" d="M 1533.5,2387.5 C 1537.57,2387.56 1540.24,2389.56 1541.5,2393.5C 1538.47,2391.98 1535.8,2389.98 1533.5,2387.5 Z"/></g>
<g><path style="opacity:1" fill="#6c1418" d="M 1433.5,2385.5 C 1431.85,2387.33 1429.85,2388.66 1427.5,2389.5C 1428.8,2387.18 1430.8,2385.84 1433.5,2385.5 Z"/></g>
<g><path style="opacity:1" fill="#661418" d="M 1427.5,2389.5 C 1424.4,2392.93 1420.73,2395.6 1416.5,2397.5C 1419.6,2394.07 1423.27,2391.4 1427.5,2389.5 Z"/></g>
<g><path style="opacity:1" fill="#881d21" d="M 1544.5,2395.5 C 1550.36,2397.94 1555.36,2401.6 1559.5,2406.5C 1554.12,2403.25 1549.12,2399.58 1544.5,2395.5 Z"/></g>
<g><path style="opacity:1" fill="#531316" d="M 1407.5,2380.5 C 1404.65,2390.23 1401.65,2399.89 1398.5,2409.5C 1399.5,2409.5 1400.5,2409.5 1401.5,2409.5C 1400.74,2410.39 1399.74,2411.06 1398.5,2411.5C 1397.36,2409.58 1397.19,2407.58 1398,2405.5C 1400.52,2396.76 1403.68,2388.43 1407.5,2380.5 Z"/></g>
<g><path style="opacity:1" fill="#5b1215" d="M 1416.5,2397.5 C 1415.42,2399.59 1413.75,2400.92 1411.5,2401.5C 1412.58,2399.41 1414.25,2398.08 1416.5,2397.5 Z"/></g>
<g><path style="opacity:1" fill="#5f1416" d="M 1411.5,2401.5 C 1408.48,2404.52 1405.15,2407.18 1401.5,2409.5C 1401.51,2407.98 1402.18,2406.82 1403.5,2406C 1406.06,2404.22 1408.73,2402.72 1411.5,2401.5 Z"/></g>
<g><path style="opacity:1" fill="#9a2226" d="M 1563.5,2402.5 C 1563.83,2402.5 1564.17,2402.5 1564.5,2402.5C 1565.77,2404.91 1566.43,2407.57 1566.5,2410.5C 1563.67,2410 1561.34,2408.67 1559.5,2406.5C 1560.83,2406.5 1562.17,2406.5 1563.5,2406.5C 1563.5,2405.17 1563.5,2403.83 1563.5,2402.5 Z"/></g>
<g><path style="opacity:1" fill="#3d3c3d" d="M 529.5,2410.5 C 536.744,2416.24 543.577,2422.57 550,2429.5C 550.464,2430.09 550.631,2430.76 550.5,2431.5C 543.167,2424.83 536.167,2417.83 529.5,2410.5 Z"/></g>
<g><path style="opacity:1" fill="#2c2a2b" d="M 937.5,2528.5 C 944.692,2531.93 951.692,2535.59 958.5,2539.5C 951.629,2537.07 944.962,2534.07 938.5,2530.5C 937.702,2530.04 937.369,2529.38 937.5,2528.5 Z"/></g>
<g><path style="opacity:1" fill="#3a393a" d="M 1107.5,2575.5 C 1113.7,2576.34 1119.37,2578.34 1124.5,2581.5C 1118.61,2579.87 1112.94,2577.87 1107.5,2575.5 Z"/></g>
<g><path style="opacity:1" fill="#3c3a3b" d="M 1801.5,2612.5 C 1796.97,2615.12 1791.97,2616.79 1786.5,2617.5C 1791.2,2615.27 1796.2,2613.6 1801.5,2612.5 Z"/></g>
<g><path style="opacity:1" fill="#393738" d="M 1266.5,2616.5 C 1277.07,2617.43 1287.4,2619.1 1297.5,2621.5C 1286.88,2620.79 1276.55,2619.12 1266.5,2616.5 Z"/></g>
<g><path style="opacity:1" fill="#3a393a" d="M 1786.5,2617.5 C 1781.12,2619.59 1775.45,2620.93 1769.5,2621.5C 1774.88,2619.41 1780.55,2618.07 1786.5,2617.5 Z"/></g>
<g><path style="opacity:1" fill="#333132" d="M 1297.5,2621.5 C 1307.17,2622.43 1316.84,2623.6 1326.5,2625C 1327.42,2625.28 1328.08,2625.78 1328.5,2626.5C 1317.96,2625.28 1307.63,2623.62 1297.5,2621.5 Z"/></g>
<g><path style="opacity:1" fill="#3d3b3c" d="M 1767.5,2621.5 C 1767.39,2622.12 1767.06,2622.62 1766.5,2623C 1759.89,2624.82 1753.22,2626.32 1746.5,2627.5C 1753.27,2625.05 1760.27,2623.05 1767.5,2621.5 Z"/></g>
<g><path style="opacity:1" fill="#3a3839" d="M 1652.5,2645.5 C 1633.11,2649.05 1613.44,2651.38 1593.5,2652.5C 1613,2649.94 1632.67,2647.6 1652.5,2645.5 Z"/></g>
<g><path style="opacity:1" fill="#2f2e2e" d="M 1574.5,2654.5 C 1559.37,2656.32 1544.04,2657.32 1528.5,2657.5C 1543.64,2655.85 1558.97,2654.85 1574.5,2654.5 Z"/></g>
<g><path style="opacity:1" fill="#3c3a3b" d="M 1236.5,2784.5 C 1261.13,2788.14 1285.8,2791.64 1310.5,2795C 1311.42,2795.28 1312.08,2795.78 1312.5,2796.5C 1286.9,2793.37 1261.56,2789.37 1236.5,2784.5 Z"/></g>
<g><path style="opacity:1" fill="#302e2f" d="M 1556.5,2803.5 C 1507.52,2806.98 1458.52,2807.31 1409.5,2804.5C 1458.51,2804.7 1507.51,2804.37 1556.5,2803.5 Z"/></g>
</svg>
